<svg width="111" height="24" viewBox="0 0 111 24" fill="none"
    xmlns="http://www.w3.org/2000/svg">
    <path d="M33.8625 18.2666C33.0891 18.2666 32.4106 18.0848 31.8269 17.7214C31.2333 17.3453 30.7633 16.8029 30.4753 16.1619C30.157 15.4861 29.9986 14.6921 30 13.7801C30.0015 12.8681 30.1632 12.0684 30.4851 11.3811C30.7781 10.7294 31.2499 10.174 31.8457 9.77948C32.4468 9.39285 33.1493 9.19369 33.864 9.20732C34.6374 9.20732 35.299 9.39478 35.8486 9.76972C36.3982 10.1446 36.7701 10.6793 36.9644 11.3736L36.7571 11.5117V9.41531H38.4894V18.1486H36.7578V16.0169L36.9651 16.1041C36.7684 16.7969 36.3962 17.3307 35.8486 17.7057C35.3009 18.0806 34.6389 18.2676 33.8625 18.2666ZM34.2777 16.8805C35.0641 16.8805 35.6733 16.6089 36.1054 16.0658C36.5373 15.5226 36.7536 14.7487 36.7541 13.7441C36.7541 12.7394 36.5379 11.9655 36.1054 11.4224C35.6729 10.8793 35.0636 10.6077 34.2777 10.6077C33.4813 10.6077 32.8604 10.8875 32.4148 11.4471C31.9693 12.0068 31.747 12.7827 31.748 13.7749C31.748 14.769 31.9703 15.5346 32.4148 16.0717C32.8594 16.6089 33.4803 16.8784 34.2777 16.8805Z" fill="#757575"/>
    <path d="M41.0353 18.1446V11.8718C41.0353 11.467 41.0279 11.0571 41.0091 10.6411C40.9903 10.2251 40.9535 9.81517 40.8972 9.4112H42.5604L42.7166 11.1787L42.5432 11.2823C42.7969 10.6006 43.2039 10.084 43.7641 9.73258C44.344 9.37558 45.0144 9.19311 45.6953 9.20697C47.7857 9.20697 48.8312 10.3796 48.8316 12.7248V18.1484H47.0813V12.7916C47.0813 12.0407 46.9312 11.4921 46.6308 11.1457C46.3305 10.7993 45.8685 10.6259 45.2448 10.6254C44.4939 10.6254 43.8964 10.8564 43.4524 11.3184C43.0085 11.7804 42.7862 12.3986 42.7856 13.1731V18.1461H41.0353V18.1446Z" fill="#757575"/>
    <path d="M51.1902 5.59985H53.2174V7.43648H51.1902V5.59985ZM51.311 18.1454V9.41201H53.0613V18.1454H51.311Z" fill="#757575"/>
    <path d="M55.6083 18.1452V11.8725C55.6083 11.4678 55.6007 11.0578 55.5835 10.6418C55.5663 10.2302 55.5285 9.81969 55.4702 9.41187H57.1333L57.2895 11.1794L57.116 11.2485C57.3342 10.6013 57.6982 10.0987 58.2078 9.74075C58.7173 9.38284 59.3238 9.20389 60.0271 9.20389C60.8586 9.20389 61.5093 9.40862 61.9794 9.8181C62.4495 10.2276 62.7516 10.859 62.8856 11.7126L62.4704 11.4182C62.6485 10.7625 63.0501 10.1896 63.6058 9.79857C64.1669 9.39811 64.8279 9.19788 65.5888 9.19788C66.5595 9.19788 67.2872 9.48922 67.7724 10.0719C68.2574 10.6546 68.5 11.5351 68.5 12.7135V18.1377H66.7504V12.7893C66.7504 12.0384 66.619 11.4896 66.3607 11.1427C66.1024 10.7958 65.6849 10.623 65.1037 10.623C64.4345 10.623 63.9064 10.8541 63.5194 11.3161C63.1324 11.7781 62.9387 12.4078 62.9383 13.2052V18.1438H61.188V12.7893C61.188 12.0384 61.0551 11.4896 60.7893 11.1427C60.5235 10.7958 60.1077 10.6225 59.5421 10.623C58.8598 10.623 58.3256 10.8541 57.9397 11.3161C57.5537 11.7781 57.36 12.4078 57.3586 13.2052V18.1438H55.6083V18.1452Z" fill="#757575"/>
    <path d="M74.3747 18.2661C73.6012 18.2661 72.923 18.0844 72.3398 17.721C71.7462 17.3448 71.2762 16.8026 70.9882 16.1615C70.6699 15.4857 70.5107 14.6918 70.5107 13.7797C70.5107 12.8676 70.6724 12.068 70.9958 11.3806C71.2892 10.7295 71.7606 10.1743 72.3555 9.77907C72.9569 9.3923 73.6598 9.19313 74.3747 9.20691C75.1485 9.20691 75.8098 9.39438 76.3584 9.76931C76.9071 10.1442 77.2793 10.6789 77.475 11.3732L77.267 11.5113V9.4149H79V18.1483H77.267V16.0165L77.475 16.1036C77.2783 16.7964 76.9061 17.3303 76.3584 17.7052C75.8109 18.0802 75.1496 18.2671 74.3747 18.2661ZM74.7892 16.8801C75.5755 16.8801 76.1852 16.6085 76.6183 16.0653C77.0512 15.5222 77.2675 14.7483 77.267 13.7436C77.267 12.739 77.0508 11.9651 76.6183 11.422C76.1858 10.8788 75.576 10.6073 74.7892 10.6073C73.9927 10.6073 73.3715 10.8871 72.9254 11.4468C72.4794 12.0064 72.2574 12.7823 72.2595 13.7744C72.2595 14.7686 72.4815 15.5343 72.9254 16.0714C73.3695 16.6085 73.9907 16.8781 74.7892 16.8801Z" fill="#757575"/>
    <path d="M2.14153 1.00002H21.0877C21.1116 0.99963 21.1351 1.00535 21.156 1.01663C21.177 1.0279 21.1947 1.04437 21.2075 1.06444C21.2204 1.08452 21.2278 1.10754 21.2292 1.13131C21.2305 1.15508 21.2258 1.1788 21.2154 1.20022C19.5821 4.49849 17.12 7.31601 14.0706 9.37684C9.14477 12.7002 4.18458 13.0434 2.143 13.0618C2.12436 13.0622 2.10583 13.0588 2.0885 13.0519C2.07116 13.0451 2.05537 13.0348 2.04206 13.0218C2.02874 13.0088 2.01816 12.9932 2.01094 12.976C2.00371 12.9588 2 12.9404 2 12.9217V1.14008C2 1.12157 2.00367 1.10323 2.0108 1.08614C2.01793 1.06905 2.02838 1.05355 2.04154 1.04052C2.0547 1.0275 2.07032 1.01721 2.08748 1.01026C2.10464 1.00331 2.12302 0.999825 2.14153 1.00002Z" fill="#FF6250"/>
    <path d="M6.23057 23C8.56704 23 10.4611 21.1058 10.4611 18.7694C10.4611 16.4329 8.56704 14.5388 6.23057 14.5388C3.89409 14.5388 2 16.4329 2 18.7694C2 21.1058 3.89409 23 6.23057 23Z" fill="#FFDF90"/>
    <path d="M14.8781 22.7489C13.6813 22.292 13.0448 20.975 13.4503 19.809L16.6439 10.6952C17.0531 9.52921 18.3548 8.95501 19.5516 9.41185C20.7484 9.86945 21.3849 11.1858 20.9794 12.3525L17.7857 21.4663C17.3765 22.6323 16.0749 23.2072 14.8781 22.7489Z" fill="#3366FF"/>
    <path d="M86.539 18.153C85.791 18.153 85.128 17.9773 84.55 17.626C83.9833 17.2747 83.5413 16.7647 83.224 16.096C82.918 15.4273 82.765 14.634 82.765 13.716C82.765 12.7867 82.918 11.9933 83.224 11.336C83.5413 10.6787 83.9833 10.1743 84.55 9.823C85.128 9.46033 85.791 9.279 86.539 9.279C87.2757 9.279 87.9217 9.466 88.477 9.84C89.0437 10.2027 89.4177 10.7013 89.599 11.336H89.395V5.488H91.112V18H89.412V16.062H89.616C89.4233 16.708 89.0493 17.218 88.494 17.592C87.9387 17.966 87.287 18.153 86.539 18.153ZM86.964 16.81C87.7007 16.81 88.2957 16.5493 88.749 16.028C89.2023 15.5067 89.429 14.736 89.429 13.716C89.429 12.696 89.2023 11.931 88.749 11.421C88.2957 10.8997 87.7007 10.639 86.964 10.639C86.216 10.639 85.6153 10.8997 85.162 11.421C84.72 11.931 84.499 12.696 84.499 13.716C84.499 14.736 84.72 15.5067 85.162 16.028C85.6153 16.5493 86.216 16.81 86.964 16.81ZM96.5584 18.153C95.8444 18.153 95.187 18.0623 94.5864 17.881C93.9857 17.6997 93.487 17.4447 93.0904 17.116L93.6174 15.943C94.0367 16.2603 94.5014 16.4983 95.0114 16.657C95.5214 16.8157 96.0427 16.895 96.5754 16.895C97.1987 16.895 97.669 16.7873 97.9864 16.572C98.3037 16.3453 98.4624 16.0393 98.4624 15.654C98.4624 15.3593 98.3604 15.1213 98.1564 14.94C97.9637 14.7587 97.6407 14.6227 97.1874 14.532L95.5554 14.209C94.83 14.0503 94.2804 13.7783 93.9064 13.393C93.5324 13.0077 93.3454 12.5147 93.3454 11.914C93.3454 11.404 93.4814 10.9507 93.7534 10.554C94.0367 10.1573 94.4334 9.84567 94.9434 9.619C95.4647 9.39233 96.071 9.279 96.7624 9.279C97.397 9.279 97.9864 9.36967 98.5304 9.551C99.0744 9.73233 99.5277 9.993 99.8904 10.333L99.3464 11.472C98.995 11.1773 98.5984 10.9507 98.1564 10.792C97.7144 10.622 97.2667 10.537 96.8134 10.537C96.1787 10.537 95.7084 10.656 95.4024 10.894C95.0964 11.132 94.9434 11.4437 94.9434 11.829C94.9434 12.1237 95.034 12.3673 95.2154 12.56C95.408 12.7413 95.7084 12.883 96.1164 12.985L97.7484 13.308C98.519 13.4667 99.097 13.7273 99.4824 14.09C99.8677 14.4527 100.06 14.94 100.06 15.552C100.06 16.0847 99.913 16.5493 99.6184 16.946C99.3237 17.3427 98.9157 17.643 98.3944 17.847C97.873 18.051 97.261 18.153 96.5584 18.153ZM105.365 18.153C104.606 18.153 103.943 17.9773 103.376 17.626C102.81 17.2747 102.368 16.7647 102.05 16.096C101.744 15.4273 101.591 14.634 101.591 13.716C101.591 12.7867 101.744 11.9933 102.05 11.336C102.368 10.6787 102.81 10.1743 103.376 9.823C103.943 9.46033 104.606 9.279 105.365 9.279C106.113 9.279 106.765 9.466 107.32 9.84C107.876 10.214 108.244 10.724 108.425 11.37H108.238L108.408 9.432H110.074C110.04 9.78333 110.006 10.1347 109.972 10.486C109.95 10.826 109.938 11.1603 109.938 11.489V18H108.221V16.096H108.408C108.227 16.7307 107.853 17.235 107.286 17.609C106.731 17.9717 106.091 18.153 105.365 18.153ZM105.79 16.81C106.527 16.81 107.116 16.5493 107.558 16.028C108.012 15.5067 108.238 14.736 108.238 13.716C108.238 12.696 108.012 11.931 107.558 11.421C107.116 10.8997 106.527 10.639 105.79 10.639C105.042 10.639 104.442 10.8997 103.988 11.421C103.546 11.931 103.325 12.696 103.325 13.716C103.325 14.736 103.546 15.5067 103.988 16.028C104.43 16.5493 105.031 16.81 105.79 16.81Z" fill="#949494"/>
</svg>
