<svg xmlns="http://www.w3.org/2000/svg" width="1380" height="768" fill="none"><path fill="#9747FF" fill-rule="evenodd" d="M17.9 172.3a4.5 4.5 0 0 1 4.1-2.8h57c1.8 0 3.4 1.1 4.1 2.8l15.7 38.2H2.2L18 172.3ZM1.5 213.5H170c2.5 0 4.5 2 4.5 4.5v104c0 2.5-2 4.5-4.5 4.5H6c-2.5 0-4.5-2-4.5-4.5V213.5Z" clip-rule="evenodd"/><path fill="#fff" d="M42.8 264.4H45l3.7 9h.2l3.7-9h2.1V276H53v-8.4l-3.5 8.4H48l-3.4-8.4h-.1v8.4h-1.7v-11.6Zm16.6 11.8c-.6 0-1-.1-1.5-.3-.5-.2-.8-.5-1-1-.3-.3-.5-.8-.5-1.4 0-.5.1-.9.3-1.2.2-.3.5-.6.8-.7a4 4 0 0 1 1-.5l1.3-.2 1.3-.1.7-.2.2-.5c0-.5-.1-.9-.4-1.2-.3-.2-.7-.4-1.3-.4-.5 0-1 .2-1.3.4a2 2 0 0 0-.7.9l-1.6-.4a3 3 0 0 1 2.1-2 5 5 0 0 1 2.6-.1c.4 0 .8.2 1.1.4.4.2.7.6.9 1 .2.4.3.9.3 1.5v5.8H62v-1.2l-.5.7-.9.5-1.2.2Zm.4-1.4c.4 0 .8 0 1.2-.2a2 2 0 0 0 1-1.7v-1.2l-.4.2-.5.1-.7.1H60l-.9.3-.7.4a1 1 0 0 0-.2.8c0 .4.2.7.5 1l1.2.2Zm6 1.2v-8.7h1.7v8.7h-1.7Zm.8-10a1 1 0 0 1-.7-.4 1 1 0 0 1-.3-.7c0-.3 0-.5.3-.7.2-.2.4-.3.7-.3.3 0 .6.1.8.3.2.2.3.4.3.7 0 .3 0 .5-.3.7a1 1 0 0 1-.8.3Zm4.7 4.8v5.2h-1.7v-8.7h1.6v1.4h.1c.2-.5.5-.8 1-1.1a3 3 0 0 1 1.6-.4c.6 0 1.1 0 1.6.3.4.3.8.6 1 1.1.3.5.4 1.1.4 1.8v5.6h-1.7v-5.3c0-.7-.2-1.2-.5-1.5-.3-.4-.8-.6-1.4-.6-.4 0-.7.1-1 .3-.3.2-.6.4-.7.7l-.3 1.2Zm11.9 5.2v-11.6h1.7v4.3l.5-.6c.2-.3.4-.5.8-.7l1.3-.2a3.4 3.4 0 0 1 3.2 2c.3.7.4 1.5.4 2.5 0 .9-.1 1.7-.4 2.4-.3.6-.8 1.2-1.3 1.5-.6.4-1.2.6-1.9.6-.5 0-1-.1-1.3-.3l-.8-.6-.4-.7h-.2v1.4h-1.6Zm1.6-4.4c0 .6.1 1.2.3 1.6.2.5.4.9.8 1.1.3.3.7.4 1.2.4s1-.1 1.3-.4l.8-1 .2-1.7c0-.5 0-1-.2-1.5s-.5-.8-.8-1.1a2 2 0 0 0-1.3-.4 2 2 0 0 0-1.2.4c-.4.2-.6.6-.8 1-.2.5-.3 1-.3 1.6Zm8 4.4v-8.7h1.7v1.4h.1c.2-.5.5-.9.9-1.1.4-.3.8-.5 1.3-.5a8 8 0 0 1 .8 0v1.7h-.4l-.5-.1c-.4 0-.8 0-1.1.3a1.9 1.9 0 0 0-1 1.7v5.3h-1.7Zm8.5.2-1.5-.3c-.4-.2-.8-.5-1-1-.3-.3-.4-.8-.4-1.4 0-.5 0-.9.2-1.2.2-.3.5-.6.8-.7a4 4 0 0 1 1-.5l1.3-.2 1.3-.1.7-.2.2-.5c0-.5-.1-.9-.4-1.2-.3-.2-.7-.4-1.3-.4-.5 0-1 .2-1.3.4a2 2 0 0 0-.7.9l-1.6-.4a3 3 0 0 1 2.1-2 5 5 0 0 1 2.6-.1c.4 0 .8.2 1.1.4.4.2.7.6.9 1 .2.4.3.9.3 1.5v5.8H104v-1.2h-.1a2.4 2.4 0 0 1-1.4 1.2l-1.2.2Zm.4-1.4c.4 0 .8 0 1.2-.2a2 2 0 0 0 1-1.7v-1.2l-.3.2-.6.1-.7.1h-.5l-.9.3c-.3.1-.5.2-.6.4a1 1 0 0 0-.3.8c0 .4.2.7.5 1l1.2.2Zm7.7-4v5.2h-1.7v-8.7h1.6v1.4h.1c.2-.5.6-.8 1-1.1a3 3 0 0 1 1.6-.4c.6 0 1.1 0 1.6.3.4.3.8.6 1 1.1.3.5.4 1.1.4 1.8v5.6h-1.7v-5.3c0-.7-.2-1.2-.5-1.5-.3-.4-.8-.6-1.4-.6-.4 0-.7.1-1 .3-.3.2-.6.4-.7.7l-.3 1.2Zm11.4 5.4a4 4 0 0 1-2.2-.6c-.6-.4-1-1-1.4-1.6-.3-.7-.5-1.4-.5-2.3 0-1 .2-1.7.5-2.4s.8-1.2 1.4-1.6a4 4 0 0 1 2.1-.5 4 4 0 0 1 1.8.3c.5.3 1 .6 1.3 1 .3.5.5 1 .5 1.6h-1.6a2 2 0 0 0-.6-1c-.4-.4-.8-.5-1.3-.5s-1 .1-1.3.4c-.3.2-.6.6-.8 1a4 4 0 0 0-.3 1.6c0 .7.1 1.2.3 1.7.2.4.5.8.8 1 .4.3.8.4 1.3.4l.8-.1.7-.6.4-.8h1.6c0 .6-.2 1.1-.5 1.6-.3.4-.7.7-1.2 1a4 4 0 0 1-1.8.4Zm6.9-5.4v5.2H126v-11.6h1.7v4.3c.3-.5.6-.8 1-1.1a3 3 0 0 1 1.7-.4c.6 0 1 0 1.5.3s.8.6 1 1.1c.3.5.4 1.1.4 1.8v5.6h-1.7v-5.3a2 2 0 0 0-.4-1.5c-.4-.4-.8-.6-1.4-.6-.4 0-.8.1-1.1.3-.3.2-.6.4-.7.7l-.3 1.2Z"/><path fill="#0D99FF" d="m563.4 207.7-35 76a6 6 0 0 0 5.6 8.3h129.1a6 6 0 0 0 5.5-3.7l35-76a6 6 0 0 0-5.6-8.3H568.9a6 6 0 0 0-5.5 3.7Z"/><path fill="#fff" d="M581.2 254v-8.7h1.7v1.4c.2-.5.5-.9.9-1.1.4-.3.9-.5 1.4-.5a8 8 0 0 1 .7 0v1.7h-.9c-.4 0-.7 0-1 .2a2 2 0 0 0-1 1.7v5.3h-1.8Zm11.5-3.6v-5.1h1.7v8.7h-1.6v-1.5h-.1c-.2.5-.6.8-1 1.2-.4.3-1 .4-1.6.4a2.6 2.6 0 0 1-2.5-1.5 4 4 0 0 1-.4-1.8v-5.5h1.7v5.3c0 .6.2 1 .5 1.4.3.4.7.6 1.3.6a2 2 0 0 0 1.7-1c.2-.3.3-.7.3-1.2Zm5.5-1.6v5.2h-1.7v-8.7h1.7v1.4c.3-.5.6-.8 1-1.1a3 3 0 0 1 1.6-.4c.6 0 1.2 0 1.6.3.5.3.8.6 1 1.1.3.5.4 1.1.4 1.8v5.6h-1.7v-5.3c0-.7-.1-1.2-.5-1.5-.3-.4-.8-.6-1.3-.6-.4 0-.8.1-1 .3-.4.2-.6.4-.8.7l-.3 1.2Zm21.6-2.7H618a2.7 2.7 0 0 0-2-2.1 3.5 3.5 0 0 0-2.8.3c-.5.3-1 .8-1.3 1.5-.3.6-.4 1.4-.4 2.4s.1 1.7.4 2.4c.3.6.8 1.1 1.3 1.5a3.6 3.6 0 0 0 2.8.4l1-.5a2.7 2.7 0 0 0 1-1.8h1.8a4.7 4.7 0 0 1-1.6 2.9l-1.5.8c-.5.2-1 .3-1.7.3-1 0-2-.3-2.7-.8a5 5 0 0 1-1.9-2 7 7 0 0 1-.7-3.2 7 7 0 0 1 .7-3.2 5 5 0 0 1 4.6-2.8c.6 0 1.2 0 1.7.3a4.6 4.6 0 0 1 2.5 2c.3.5.5 1 .6 1.6Zm3.7-3.7V254h-1.8v-11.6h1.8Zm6.3 2.9h1.7v9.3c0 .6-.1 1-.4 1.4a2 2 0 0 1-.9 1c-.4.2-.9.3-1.5.3H628.4v-1.5h.2c.4 0 .7-.1.9-.3.2-.2.3-.5.3-1v-9.2Zm.8-1.4a1 1 0 0 1-.8-.3 1 1 0 0 1-.3-.7c0-.3.1-.5.3-.7.3-.2.5-.3.8-.3.3 0 .6.1.8.3.2.2.3.4.3.7 0 .3-.1.5-.3.7a1 1 0 0 1-.8.3Zm6.6 10.3a3.8 3.8 0 0 1-3.6-2.1c-.3-.7-.4-1.5-.4-2.4 0-1 .1-1.7.5-2.4a3.8 3.8 0 0 1 3.5-2.1 3.8 3.8 0 0 1 3.6 2.1c.3.7.5 1.5.5 2.4 0 .9-.2 1.7-.5 2.3a3.8 3.8 0 0 1-3.6 2.2Zm0-1.4c.6 0 1-.2 1.4-.5.3-.3.6-.6.7-1a4.4 4.4 0 0 0 0-3c-.1-.6-.4-1-.7-1.3a2 2 0 0 0-1.3-.4 2 2 0 0 0-1.4.4l-.8 1.1-.2 1.6c0 .5 0 1 .2 1.5s.5.8.8 1.1c.4.3.8.4 1.4.4Zm6 1.2v-11.6h1.7v4.3l.5-.6c.2-.3.4-.5.8-.7.3-.2.7-.2 1.3-.2a3.4 3.4 0 0 1 3.2 2c.3.7.4 1.5.4 2.5 0 .9-.1 1.7-.4 2.4-.3.7-.8 1.2-1.3 1.5-.6.4-1.2.6-1.9.6-.5 0-1-.1-1.3-.3l-.8-.6-.4-.7h-.2v1.4h-1.6Zm1.6-4.4c0 .7.1 1.2.3 1.7.2.4.4.8.8 1 .3.3.7.4 1.2.4s1-.1 1.3-.4l.8-1 .2-1.7c0-.5 0-1-.2-1.5s-.5-.8-.8-1.1a2 2 0 0 0-1.3-.4 2 2 0 0 0-1.2.4c-.4.2-.6.6-.8 1-.2.5-.3 1-.3 1.6Z"/><rect width="176" height="88" x="656" y="328" fill="#BDE3FF" rx="35.2"/><path fill="#000" fill-opacity=".8" d="M685.2 378v-11.6h1.7v4.3l.5-.6c.2-.3.4-.5.8-.7l1.3-.2a3.4 3.4 0 0 1 3.2 2c.3.7.4 1.5.4 2.5 0 .9-.1 1.7-.4 2.4-.3.6-.8 1.2-1.3 1.5-.6.4-1.2.6-1.9.6-.5 0-1-.1-1.3-.3l-.8-.6-.4-.7h-.2v1.4h-1.6Zm1.6-4.4c0 .6.1 1.2.3 1.6.2.5.4.9.8 1.1.3.3.7.4 1.2.4s1-.1 1.3-.4l.8-1 .2-1.7c0-.5 0-1-.2-1.5s-.5-.8-.8-1.1a2 2 0 0 0-1.3-.4 2 2 0 0 0-1.2.4c-.4.2-.6.6-.8 1-.2.5-.3 1-.3 1.6Zm13.6.8v-5.1h1.7v8.7h-1.7v-1.5a2.7 2.7 0 0 1-2.7 1.6 2.6 2.6 0 0 1-2.5-1.5 4 4 0 0 1-.3-1.8v-5.5h1.7v5.3c0 .6.1 1 .5 1.4.3.4.7.6 1.3.6a2 2 0 0 0 1.7-1c.2-.3.3-.7.3-1.2Zm3.8 3.6v-8.7h1.7v8.7h-1.7Zm.9-10a1 1 0 0 1-.8-.4 1 1 0 0 1-.3-.7c0-.3.1-.5.3-.7.2-.2.5-.3.8-.3.3 0 .5.1.7.3.2.2.3.4.3.7 0 .3 0 .5-.3.7a1 1 0 0 1-.7.3Zm4.6-1.6V378H708v-11.6h1.7Zm5.4 11.8a3.4 3.4 0 0 1-3.2-2.1c-.3-.7-.4-1.5-.4-2.4 0-1 .1-1.8.4-2.5a3.4 3.4 0 0 1 3.2-2c.6 0 1 0 1.3.2.4.2.6.4.8.7l.4.6h.1v-4.3h1.7V378h-1.6v-1.4h-.2l-.4.7a2.5 2.5 0 0 1-2.1.9Zm.4-1.5a2 2 0 0 0 1.2-.4c.4-.2.6-.6.8-1 .2-.5.3-1 .3-1.7 0-.6-.1-1.1-.3-1.6-.2-.4-.4-.8-.8-1a2 2 0 0 0-1.2-.4 2 2 0 0 0-1.3.4l-.8 1-.2 1.6c0 .6 0 1.1.2 1.6s.5.8.8 1.1c.3.3.8.4 1.3.4Zm11.3-4.4v1.5h-5.1v-1.5h5.1Zm8.6-.9-1.5.3-.3-.6c-.1-.2-.3-.3-.6-.4a2 2 0 0 0-.8-.2c-.5 0-1 .1-1.2.3-.4.2-.5.5-.5.9 0 .2 0 .5.3.7l1 .4 1.4.3c.8.2 1.4.5 1.8.9.4.4.6.9.6 1.5 0 .5-.1 1-.4 1.4a3 3 0 0 1-1.3 1c-.5.2-1.1.3-1.9.3-1 0-1.7-.2-2.3-.6-.7-.5-1-1-1.2-1.8l1.7-.3c0 .4.3.8.6 1 .3.2.7.3 1.2.3.6 0 1-.1 1.4-.3.3-.3.5-.6.5-.9 0-.3-.1-.5-.3-.7a2 2 0 0 0-1-.4l-1.4-.3c-.9-.2-1.5-.5-1.8-1-.4-.3-.6-.8-.6-1.5 0-.5.1-1 .4-1.3.3-.4.7-.7 1.2-1l1.7-.2c1 0 1.7.2 2.3.6.5.4.9 1 1 1.6Zm6-2.1v1.3h-4.8v-1.3h4.8Zm-3.5-2.1h1.7v8.2l.1.8.4.3.5.1a2 2 0 0 0 .6 0l.3 1.3-.4.1a3.3 3.3 0 0 1-2-.1l-.9-.8c-.2-.3-.3-.8-.3-1.3v-8.6Zm8.8 11a3.8 3.8 0 0 1-3.6-2.1c-.3-.7-.5-1.5-.5-2.4 0-1 .2-1.7.5-2.4a3.8 3.8 0 0 1 3.6-2.1 3.8 3.8 0 0 1 3.6 2.1c.3.7.4 1.5.4 2.4 0 .9-.1 1.7-.5 2.3a3.8 3.8 0 0 1-3.5 2.2Zm0-1.4c.5 0 1-.2 1.3-.5l.8-1 .2-1.6c0-.6 0-1.1-.2-1.6-.2-.4-.5-.8-.8-1a2 2 0 0 0-1.3-.5 2 2 0 0 0-1.4.4c-.3.3-.6.7-.7 1.1a4.6 4.6 0 0 0 0 3c.1.6.4 1 .7 1.2.4.3.8.4 1.4.4Zm5.8 1.2v-8.7h1.6v1.4c.2-.5.5-.9 1-1.1.3-.3.8-.5 1.3-.5a8 8 0 0 1 .7 0v1.7h-.3l-.6-.1c-.4 0-.7 0-1 .3a2 2 0 0 0-1 1.7v5.3h-1.7Zm7.3 3.3a3.5 3.5 0 0 1-1.2-.2l.4-1.4.8.1c.3 0 .5-.1.7-.3.2-.1.3-.4.5-.8l.2-.6-3.2-8.8h1.8l2.2 6.7h.1l2.2-6.7h1.9l-3.6 9.9a4 4 0 0 1-.7 1.1c-.2.3-.5.6-.9.7a3 3 0 0 1-1.2.3Zm8-3.3v-11.6h1.6v4.3h.1l.4-.6.8-.7 1.3-.2a3.4 3.4 0 0 1 3.2 2c.3.7.5 1.5.5 2.5 0 .9-.2 1.7-.5 2.4-.3.6-.7 1.2-1.3 1.5-.5.4-1.2.6-1.9.6-.5 0-1-.1-1.3-.3l-.8-.6-.4-.7h-.1v1.4h-1.7Zm1.6-4.4c0 .6 0 1.2.2 1.6.2.5.5.9.8 1.1.3.3.8.4 1.3.4s.9-.1 1.2-.4c.4-.3.6-.6.8-1 .2-.6.3-1 .3-1.7l-.3-1.5c-.2-.5-.4-.8-.8-1.1a2 2 0 0 0-1.3-.4 2 2 0 0 0-1.2.4c-.3.2-.6.6-.8 1l-.2 1.6Zm11.7 4.6a3.8 3.8 0 0 1-3.6-2.1c-.3-.7-.5-1.5-.5-2.4 0-1 .2-1.7.5-2.4a3.8 3.8 0 0 1 3.6-2.1 3.8 3.8 0 0 1 3.6 2.1c.3.7.5 1.5.5 2.4 0 .9-.2 1.7-.6 2.3a3.8 3.8 0 0 1-3.5 2.2Zm0-1.4c.5 0 1-.2 1.3-.5.4-.3.6-.6.8-1 .2-.6.2-1 .2-1.6 0-.6 0-1.1-.2-1.6-.2-.4-.4-.8-.8-1a2 2 0 0 0-1.3-.5 2 2 0 0 0-1.3.4c-.4.3-.6.7-.8 1.1a4.6 4.6 0 0 0 0 3c.2.6.4 1 .8 1.2.3.3.8.4 1.3.4Zm9.5 1.4a3.8 3.8 0 0 1-3.6-2.1c-.3-.7-.5-1.5-.5-2.4 0-1 .2-1.7.5-2.4a3.8 3.8 0 0 1 3.6-2.1 3.8 3.8 0 0 1 3.6 2.1c.3.7.4 1.5.4 2.4 0 .9-.1 1.7-.5 2.3a3.8 3.8 0 0 1-3.5 2.2Zm0-1.4c.5 0 1-.2 1.3-.5.3-.3.6-.6.7-1a4.4 4.4 0 0 0 0-3c-.1-.6-.4-1-.7-1.3a2 2 0 0 0-1.3-.4 2 2 0 0 0-1.4.4l-.8 1.1-.2 1.6c0 .5 0 1 .2 1.5s.5.8.8 1.1c.4.3.8.4 1.4.4Zm7.3-1.8v-2h.3l3.5-3.7h2l-4 4.2h-.2l-1.6 1.5Zm-1.6 3v-11.6h1.7V378h-1.7Zm5.6 0-3.2-4.1 1.2-1.2 4 5.3h-2Z"/><path stroke="#B3B3B3" stroke-linecap="round" stroke-linejoin="bevel" stroke-miterlimit="0" stroke-width="3" d="M597.5 296v52a24 24 0 0 0 24 24H652"/><rect width="192" height="88" x="688" y="442" fill="#BDE3FF" rx="35.2"/><path fill="#000" fill-opacity=".8" d="M736.3 492v-8.7h1.6v1.4h.1c.2-.5.5-.9.9-1.1.4-.3.8-.5 1.3-.5a8 8 0 0 1 .8 0v1.7h-.4l-.5-.1c-.4 0-.8 0-1.1.3a1.9 1.9 0 0 0-1 1.7v5.3h-1.7Zm11.5-3.6v-5.1h1.7v8.7h-1.7v-1.5l-1 1.2c-.5.3-1 .4-1.7.4a2.6 2.6 0 0 1-2.5-1.5 4 4 0 0 1-.3-1.8v-5.5h1.7v5.3c0 .6.1 1 .5 1.4.3.4.7.6 1.2.6a2 2 0 0 0 1.8-1c.2-.3.3-.7.3-1.2Zm5.5-1.6v5.2h-1.7v-8.7h1.6v1.4h.1c.2-.5.6-.8 1-1.1a3 3 0 0 1 1.6-.4c.6 0 1.1 0 1.6.3.4.3.8.6 1 1.1.3.5.4 1.1.4 1.8v5.6h-1.7v-5.3c0-.7-.2-1.2-.5-1.5-.3-.4-.8-.6-1.4-.6-.4 0-.7.1-1 .3-.3.2-.6.4-.7.7l-.3 1.2Zm14.3 5.4c-.6 0-1-.1-1.5-.3-.5-.2-.8-.5-1-1-.3-.3-.5-.8-.5-1.4 0-.5.1-.9.3-1.2.2-.3.5-.6.8-.7a4 4 0 0 1 1-.5l1.3-.2 1.3-.1.7-.2.2-.5c0-.5-.2-.9-.4-1.2-.3-.2-.7-.4-1.3-.4-.5 0-1 .2-1.3.4a2 2 0 0 0-.7.9l-1.6-.4a3 3 0 0 1 2.1-2 5 5 0 0 1 2.6-.1c.4 0 .8.2 1.1.4.4.2.6.6.9 1 .2.4.3.9.3 1.5v5.8h-1.7v-1.2l-.5.7-.9.5-1.2.2Zm.4-1.4c.4 0 .8 0 1.2-.2a2 2 0 0 0 1-1.7v-1.2l-.4.2-.5.1-.7.1h-.5l-1 .3-.6.4a1 1 0 0 0-.2.8c0 .4.2.7.5 1l1.2.2Zm7.7-4v5.2H774v-8.7h1.6v1.4h.1c.2-.5.5-.8 1-1.1a3 3 0 0 1 1.6-.4c.6 0 1.1 0 1.5.3.5.3.8.6 1 1.1.3.5.5 1.1.5 1.8v5.6h-1.7v-5.3c0-.7-.2-1.2-.5-1.5-.4-.4-.8-.6-1.4-.6-.4 0-.7.1-1 .3l-.8.7-.2 1.2Zm7.7 5.2v-8.7h1.7v8.7h-1.7Zm.8-10a1 1 0 0 1-.7-.4 1 1 0 0 1-.4-.7c0-.3.1-.5.4-.7.2-.2.4-.3.7-.3.3 0 .6.1.8.3.2.2.3.4.3.7 0 .3-.1.5-.3.7a1 1 0 0 1-.8.3Zm3 10v-8.7h1.6v1.4h.1c.2-.5.5-.9.9-1.1.4-.3 1-.4 1.5-.4.6 0 1 .1 1.4.4.4.2.7.6 1 1 .2-.4.6-.7 1-1a3 3 0 0 1 1.6-.4c.8 0 1.5.2 2 .7.5.5.7 1.2.7 2.2v5.9h-1.7v-5.7c0-.6-.1-1-.4-1.3-.4-.2-.8-.4-1.2-.4-.6 0-1 .2-1.3.5-.3.4-.5.8-.5 1.3v5.6h-1.6v-5.8c0-.5-.2-.9-.5-1.1-.3-.3-.7-.5-1.1-.5-.4 0-.7.1-1 .3l-.6.7c-.2.3-.2.6-.2 1v5.4h-1.7Zm16.5.2c-.6 0-1-.1-1.5-.3-.5-.2-.8-.5-1-1-.3-.3-.5-.8-.5-1.4 0-.5.1-.9.3-1.2.2-.3.5-.6.8-.7a4 4 0 0 1 1-.5l1.3-.2 1.2-.1.8-.2.2-.5c0-.5-.2-.9-.4-1.2-.3-.2-.7-.4-1.3-.4-.6 0-1 .2-1.3.4a2 2 0 0 0-.7.9l-1.6-.4a3 3 0 0 1 2-2 5 5 0 0 1 2.7-.1c.4 0 .8.2 1.1.4l.9 1c.2.4.3.9.3 1.5v5.8h-1.7v-1.2a2.4 2.4 0 0 1-1.4 1.2l-1.2.2Zm.3-1.4c.5 0 1 0 1.2-.2a2 2 0 0 0 1-1.7v-1.2l-.3.2-.6.1-.6.1h-.5l-1 .3-.6.4a1 1 0 0 0-.2.8c0 .4.1.7.5 1l1.1.2Zm11.2-4.5v1.5H810v-1.5h5.2Zm5.8 5.9a4 4 0 0 1-2.2-.6c-.6-.4-1-1-1.4-1.6-.3-.7-.5-1.4-.5-2.3 0-1 .2-1.7.5-2.4s.8-1.2 1.4-1.6a4 4 0 0 1 2.2-.5 4 4 0 0 1 1.7.3c.5.3 1 .6 1.3 1 .3.5.5 1 .6 1.6h-1.7a2 2 0 0 0-.6-1c-.3-.4-.8-.5-1.3-.5s-.9.1-1.3.4c-.3.2-.6.6-.8 1a4 4 0 0 0-.3 1.6c0 .7.1 1.2.3 1.7.2.4.5.8.8 1 .4.3.8.4 1.3.4l.9-.1.6-.6.4-.8h1.7c-.1.6-.3 1.1-.6 1.6-.3.4-.7.7-1.2 1a4 4 0 0 1-1.8.4Zm6.9-11.8V492h-1.7v-11.6h1.7ZM830 492v-8.7h1.7v8.7H830Zm.9-10a1 1 0 0 1-.8-.4 1 1 0 0 1-.3-.7c0-.3.1-.5.3-.7.2-.2.5-.3.8-.3.3 0 .5.1.7.3.2.2.3.4.3.7 0 .3 0 .5-.3.7a1 1 0 0 1-.7.3Z"/><path fill="#B3B3B3" d="M652 373.5a1.5 1.5 0 0 0 0-3v3Zm33 113.6c.6-.6.6-1.6 0-2.2l-9.5-9.5a1.5 1.5 0 0 0-2.1 2.1l8.5 8.5-8.5 8.5a1.5 1.5 0 0 0 2.1 2.1l9.6-9.5Zm-33-116.6h-4v3h4v-3ZM622.5 396v66h3v-66h-3Zm25.5 91.5h36v-3h-36v3ZM622.5 462c0 14 11.4 25.5 25.5 25.5v-3c-12.4 0-22.5-10-22.5-22.5h-3Zm25.5-91.5c-14 0-25.5 11.4-25.5 25.5h3c0-12.4 10-22.5 22.5-22.5v-3Z"/><rect width="176" height="88" x="816" y="568" fill="#BDE3FF" rx="35.2"/><path fill="#000" fill-opacity=".8" d="m853.7 611.4-1.5.3-.4-.6c0-.2-.3-.3-.5-.4a2 2 0 0 0-.9-.2c-.5 0-.9.1-1.2.3-.3.2-.5.5-.5.9 0 .2.1.5.3.7l1 .4 1.5.3c.8.2 1.4.5 1.8.9.4.4.6.9.6 1.5 0 .5-.2 1-.5 1.4a3 3 0 0 1-1.2 1c-.6.2-1.2.3-2 .3-.9 0-1.7-.2-2.3-.6-.6-.5-1-1-1.1-1.8l1.6-.3c.1.4.3.8.6 1 .4.2.8.3 1.3.3s1-.1 1.3-.3c.4-.3.5-.6.5-.9 0-.3 0-.5-.3-.7a2 2 0 0 0-1-.4l-1.4-.3c-.8-.2-1.4-.5-1.8-1-.4-.3-.6-.8-.6-1.5 0-.5.2-1 .5-1.3.2-.4.6-.7 1.1-1l1.8-.2c1 0 1.7.2 2.2.6.6.4 1 1 1 1.6Zm3 9.9a3.5 3.5 0 0 1-1.2-.2l.4-1.4.8.1c.3 0 .5-.1.7-.3l.5-.8.2-.6-3.2-8.8h1.8l2.2 6.7 2.3-6.7h1.8l-3.6 9.9a4 4 0 0 1-.6 1.1c-.3.3-.6.6-1 .7a3 3 0 0 1-1.2.3Zm9.4-8.5v5.2h-1.7v-8.7h1.7v1.4c.3-.5.6-.8 1-1.1a3 3 0 0 1 1.7-.4c.5 0 1 0 1.5.3s.8.6 1 1.1c.3.5.4 1.1.4 1.8v5.6H870v-5.3c0-.7-.1-1.2-.5-1.5-.3-.4-.7-.6-1.3-.6-.4 0-.8.1-1 .3-.4.2-.6.4-.8.7l-.3 1.2Zm11.4 5.4a4 4 0 0 1-2.2-.6c-.6-.4-1-1-1.4-1.6-.3-.7-.5-1.4-.5-2.3 0-1 .2-1.7.5-2.4.4-.7.8-1.2 1.4-1.6a4 4 0 0 1 2.2-.5 4 4 0 0 1 1.8.3c.5.3.9.6 1.2 1 .3.5.5 1 .6 1.6h-1.7a2 2 0 0 0-.6-1c-.3-.4-.7-.5-1.3-.5-.5 0-.9.1-1.2.4-.4.2-.7.6-.9 1a4 4 0 0 0-.2 1.6c0 .7 0 1.2.2 1.7.2.4.5.8.9 1 .3.3.7.4 1.2.4l.9-.1.7-.6c.1-.2.3-.4.3-.8h1.7c0 .6-.3 1.1-.6 1.5-.3.5-.7.8-1.2 1a4 4 0 0 1-1.8.5Zm15.8-6.8-1.5.3-.3-.6-.6-.4a2 2 0 0 0-.9-.2l-1.2.3c-.3.2-.4.5-.4.9 0 .2 0 .5.3.7l1 .4 1.4.3c.8.2 1.4.5 1.8.9.4.4.6.9.6 1.5 0 .5-.2 1-.5 1.4a3 3 0 0 1-1.2 1c-.5.2-1.2.3-1.9.3-1 0-1.7-.2-2.4-.6-.6-.5-1-1-1.1-1.8l1.6-.3c.1.4.4.8.7 1 .3.2.7.3 1.2.3.6 0 1-.1 1.4-.3.3-.3.5-.6.5-.9 0-.3-.1-.5-.4-.7a2 2 0 0 0-.9-.4l-1.5-.3c-.8-.2-1.4-.5-1.8-1-.3-.3-.5-.8-.5-1.5 0-.5.1-1 .4-1.3.3-.4.7-.7 1.2-1l1.7-.2c1 0 1.7.2 2.3.6.5.4.9 1 1 1.6Zm6-2.1v1.3h-4.8v-1.3h4.8Zm-3.5-2.1h1.7v8.2l.1.8c.1.1.2.3.4.3l.5.1a2 2 0 0 0 .6 0l.3 1.3-.4.1a3.3 3.3 0 0 1-2-.1l-.9-.8c-.2-.3-.3-.8-.3-1.3v-8.6Zm8.8 11a3.8 3.8 0 0 1-3.6-2.1c-.3-.7-.5-1.5-.5-2.4 0-1 .2-1.7.5-2.4a3.8 3.8 0 0 1 3.5-2.1 3.8 3.8 0 0 1 3.6 2.1c.4.7.5 1.5.5 2.4 0 .9-.1 1.7-.5 2.3a3.8 3.8 0 0 1-3.6 2.2Zm0-1.5c.5 0 1 0 1.3-.4.3-.3.6-.6.7-1a4.4 4.4 0 0 0 0-3c-.1-.6-.4-1-.7-1.3a2 2 0 0 0-1.3-.4 2 2 0 0 0-1.4.4l-.8 1.1-.2 1.6c0 .5 0 1 .2 1.5s.5.8.8 1.1c.4.3.8.5 1.4.5Zm5.7 1.3v-8.7h1.7v1.4c.2-.5.5-.9 1-1.1.3-.3.8-.5 1.3-.5a8 8 0 0 1 .7 0v1.7h-.9c-.4 0-.7 0-1 .2a1.9 1.9 0 0 0-1 1.7v5.3h-1.8Zm7.3 3.3a3.5 3.5 0 0 1-1.1-.2l.4-1.4.8.1c.3 0 .5-.1.7-.3.2-.1.3-.4.5-.8l.2-.6-3.2-8.8h1.8l2.2 6.7h.1l2.2-6.7h1.8l-3.6 9.9a4 4 0 0 1-.6 1.1c-.3.3-.6.6-1 .7a3 3 0 0 1-1.2.3Zm8-3.3v-11.6h1.7v4.3l.5-.6.8-.7 1.3-.2a3.4 3.4 0 0 1 3.2 2c.3.7.5 1.5.5 2.5 0 .9-.2 1.7-.5 2.4-.3.6-.8 1.2-1.3 1.5-.6.4-1.2.6-1.9.6-.5 0-1-.1-1.3-.3l-.8-.6-.4-.7h-.1v1.4h-1.7Zm1.7-4.4c0 .6 0 1.2.2 1.6.2.5.5.9.8 1.1.3.3.7.4 1.2.4s1-.1 1.3-.4l.8-1c.2-.6.2-1 .2-1.7 0-.5 0-1-.2-1.5s-.4-.8-.8-1.1a2 2 0 0 0-1.3-.4 2 2 0 0 0-1.2.4c-.4.2-.6.6-.8 1-.2.5-.2 1-.2 1.6Zm11.7 4.6a3.8 3.8 0 0 1-3.6-2.1c-.3-.7-.5-1.5-.5-2.4 0-1 .2-1.7.5-2.4a3.8 3.8 0 0 1 3.6-2.1 3.8 3.8 0 0 1 3.6 2.1c.3.7.4 1.5.4 2.4 0 .9-.1 1.7-.5 2.3a3.8 3.8 0 0 1-3.5 2.2Zm0-1.5c.5 0 1 0 1.3-.4l.8-1 .2-1.6c0-.6 0-1.1-.2-1.6-.2-.4-.5-.8-.8-1a2 2 0 0 0-1.3-.5 2 2 0 0 0-1.4.4c-.3.3-.6.7-.7 1.1a4.6 4.6 0 0 0 0 3c.1.6.4 1 .7 1.2.4.3.8.5 1.4.5Zm9.4 1.5a3.8 3.8 0 0 1-3.6-2.1c-.3-.7-.4-1.5-.4-2.4 0-1 .1-1.7.5-2.4a3.8 3.8 0 0 1 3.5-2.1 3.8 3.8 0 0 1 3.6 2.1c.3.7.5 1.5.5 2.4 0 .9-.2 1.7-.5 2.3a3.8 3.8 0 0 1-3.6 2.2Zm0-1.5c.6 0 1 0 1.4-.4.3-.3.6-.6.7-1a4.4 4.4 0 0 0 0-3c-.1-.6-.4-1-.7-1.3a2 2 0 0 0-1.4-.4 2 2 0 0 0-1.3.4l-.8 1.1-.2 1.6c0 .5 0 1 .2 1.5s.5.8.8 1.1c.4.3.8.5 1.3.5Zm7.4-1.7v-2h.3l3.4-3.7h2l-3.9 4.2h-.3l-1.5 1.5Zm-1.6 3v-11.6h1.7V618h-1.7Zm5.5 0-3-4.1 1-1.2 4.1 5.3h-2Z"/><rect width="208" height="88" x="816" y="680" fill="#BDE3FF" rx="35.2"/><path fill="#000" fill-opacity=".8" d="m853.7 723.4-1.5.3-.3-.6-.6-.4a2 2 0 0 0-.9-.2l-1.2.3c-.3.2-.4.5-.4.9 0 .2 0 .5.3.7l1 .4 1.4.3c.8.2 1.4.5 1.8.9.4.4.6.9.6 1.5 0 .5-.2 1-.5 1.4a3 3 0 0 1-1.2 1c-.5.2-1.2.3-1.9.3-1 0-1.7-.2-2.4-.6-.6-.5-1-1-1.1-1.8l1.6-.3c.1.4.4.8.7 1 .3.2.7.3 1.2.3.6 0 1-.1 1.4-.3.3-.3.5-.6.5-.9 0-.3-.2-.5-.4-.7a2 2 0 0 0-.9-.4l-1.5-.3c-.8-.2-1.4-.5-1.8-1-.4-.3-.5-.8-.5-1.5 0-.5.1-1 .4-1.3.3-.4.7-.7 1.2-1l1.7-.2c1 0 1.7.2 2.3.6.5.4.8 1 1 1.6Zm3 9.9a3.5 3.5 0 0 1-1.2-.2l.4-1.4.8.1c.3 0 .5-.1.7-.3.2-.1.3-.4.5-.8l.2-.6-3.2-8.8h1.8l2.2 6.7h.1l2.2-6.7h1.9l-3.6 9.9a4 4 0 0 1-.7 1.1c-.2.3-.5.6-.9.7a3 3 0 0 1-1.2.3Zm9.5-8.5v5.2h-1.7v-8.7h1.6v1.4h.1c.2-.5.5-.8 1-1.1a3 3 0 0 1 1.6-.4c.6 0 1.1 0 1.5.3.5.3.8.6 1 1.1.3.5.5 1.1.5 1.8v5.6H870v-5.3c0-.7-.2-1.2-.5-1.5-.4-.4-.8-.6-1.4-.6-.4 0-.7.1-1 .3l-.8.7-.2 1.2Zm11.3 5.4a4 4 0 0 1-2.1-.6c-.7-.4-1.1-1-1.4-1.6-.4-.7-.5-1.4-.5-2.3 0-1 .1-1.7.5-2.4.3-.7.8-1.2 1.4-1.6a4 4 0 0 1 2.1-.5 4 4 0 0 1 1.8.3c.5.3 1 .6 1.2 1 .4.5.6 1 .6 1.6h-1.6a2 2 0 0 0-.7-1c-.3-.4-.7-.5-1.3-.5-.4 0-.8.1-1.2.4-.3.2-.6.6-.8 1a4 4 0 0 0-.3 1.6c0 .7 0 1.2.3 1.7.2.4.4.8.8 1 .3.3.8.4 1.2.4l1-.1.6-.6.4-.8h1.6a3.2 3.2 0 0 1-1.8 2.6 4 4 0 0 1-1.8.4Zm12.6 0a3.4 3.4 0 0 1-3.2-2.1c-.3-.7-.5-1.5-.5-2.4 0-1 .2-1.8.5-2.5a3.4 3.4 0 0 1 3.2-2c.5 0 1 0 1.3.2l.8.7.4.6h.1v-4.3h1.7V730h-1.6v-1.4h-.2l-.4.7a2.5 2.5 0 0 1-2.1.9Zm.4-1.5a2 2 0 0 0 1.2-.4c.3-.2.6-.6.8-1 .2-.5.2-1 .2-1.7 0-.6 0-1.1-.2-1.6-.2-.4-.5-.8-.8-1a2 2 0 0 0-1.2-.4 2 2 0 0 0-1.3.4c-.4.3-.6.6-.8 1-.2.5-.2 1-.2 1.6 0 .6 0 1.1.2 1.6s.4.8.8 1.1c.3.3.8.4 1.3.4Zm10 1.5c-1 0-1.7-.2-2.3-.6-.6-.3-1.1-.9-1.4-1.5-.4-.7-.5-1.5-.5-2.4 0-.9.1-1.7.5-2.4.3-.7.8-1.2 1.4-1.6.6-.4 1.3-.5 2.1-.5.5 0 1 0 1.4.2a3.5 3.5 0 0 1 2.1 2.1c.3.6.4 1.3.4 2v.6h-7V725h5.3c0-.5 0-.9-.3-1.2a2 2 0 0 0-.7-.8c-.4-.2-.7-.3-1.2-.3s-.9 0-1.2.3c-.4.2-.7.5-.9 1l-.2 1.1v1c0 .6 0 1.1.3 1.5l.8 1c.4.2.8.3 1.3.3.4 0 .7 0 1-.2.2 0 .4-.2.6-.4l.5-.7 1.6.3a3 3 0 0 1-.7 1.3l-1.3.8c-.5.2-1 .3-1.7.3Zm12-6.8-1.6.3-.3-.6-.6-.4a2 2 0 0 0-.9-.2c-.5 0-.9.1-1.2.3-.3.2-.5.5-.5.9l.4.7 1 .4 1.4.3c.8.2 1.4.5 1.8.9.4.4.6.9.6 1.5 0 .5-.2 1-.5 1.4a3 3 0 0 1-1.2 1c-.6.2-1.2.3-1.9.3-1 0-1.8-.2-2.4-.6-.6-.5-1-1-1.1-1.8l1.6-.3c.1.4.3.8.7 1 .3.2.7.3 1.2.3.6 0 1-.1 1.3-.3.4-.3.5-.6.5-.9 0-.3 0-.5-.3-.7a2 2 0 0 0-.9-.4l-1.5-.3c-.8-.2-1.4-.5-1.8-1-.4-.3-.6-.8-.6-1.5 0-.5.2-1 .5-1.3.3-.4.7-.7 1.2-1l1.7-.2c1 0 1.7.2 2.2.6.6.4 1 1 1.1 1.6Zm1.8 6.6v-8.7h1.7v8.7h-1.7Zm.8-10a1 1 0 0 1-.7-.4 1 1 0 0 1-.3-.7c0-.3 0-.5.3-.7.2-.2.4-.3.7-.3.3 0 .6.1.8.3.2.2.3.4.3.7 0 .3-.1.5-.3.7a1 1 0 0 1-.8.3Zm6.6 13.5c-.6 0-1.2-.1-1.7-.3-.5-.2-1-.4-1.3-.7a3 3 0 0 1-.7-1l1.5-.6.4.5.7.5 1.2.2c.6 0 1.1-.2 1.6-.5.4-.3.6-.8.6-1.5v-1.7h-.1l-.5.6c-.2.3-.4.5-.7.6a3 3 0 0 1-1.3.3c-.7 0-1.4-.2-2-.5-.5-.3-.9-.8-1.2-1.5-.3-.6-.5-1.4-.5-2.3 0-1 .2-1.7.5-2.4.3-.6.7-1.2 1.3-1.5.5-.4 1.2-.5 1.9-.5.5 0 1 0 1.3.2l.8.7.4.6h.1v-1.4h1.7v8.9a3 3 0 0 1-.5 1.8 3 3 0 0 1-1.5 1.1c-.5.2-1.2.4-2 .4Zm0-5c.5 0 1-.2 1.3-.4.3-.2.6-.5.7-1a4.2 4.2 0 0 0 0-3.1c-.1-.4-.4-.8-.7-1a2 2 0 0 0-1.3-.4 2 2 0 0 0-1.3.4l-.7 1c-.2.5-.3 1-.3 1.6 0 .6.1 1 .3 1.5.2.4.4.8.8 1 .3.2.7.4 1.2.4Zm7.8-3.7v5.2h-1.7v-8.7h1.6v1.4h.1c.2-.5.5-.8 1-1.1a3 3 0 0 1 1.6-.4c.6 0 1.1 0 1.6.3.4.3.8.6 1 1.1.2.5.4 1.1.4 1.8v5.6h-1.7v-5.3c0-.7-.2-1.2-.5-1.5-.4-.4-.8-.6-1.4-.6-.4 0-.7.1-1 .3l-.8.7-.2 1.2Zm12.8-.5v1.5h-5.1v-1.5h5.1Zm6.2-3v1.3h-4.8v-1.3h4.8Zm-3.5-2.1h1.7v8.2l.1.8.4.3.5.1a2 2 0 0 0 .6 0l.3 1.3-.4.1a3.3 3.3 0 0 1-2-.1l-.9-.8c-.2-.3-.3-.8-.3-1.3v-8.6Zm8.8 11a3.8 3.8 0 0 1-3.6-2.1c-.3-.7-.5-1.5-.5-2.4 0-1 .2-1.7.5-2.4a3.8 3.8 0 0 1 3.6-2.1 3.8 3.8 0 0 1 3.6 2.1c.3.7.4 1.5.4 2.4 0 .9-.1 1.7-.5 2.3a3.8 3.8 0 0 1-3.5 2.2Zm0-1.5c.5 0 1 0 1.3-.4l.8-1 .2-1.6c0-.6 0-1.1-.2-1.6-.2-.4-.5-.8-.8-1a2 2 0 0 0-1.3-.5 2 2 0 0 0-1.4.4c-.3.3-.6.7-.7 1.1a4.6 4.6 0 0 0 0 3c.1.6.4 1 .7 1.2.4.3.8.5 1.4.5Zm7.3-1.7v-2h.3l3.5-3.7h2l-4 4.2h-.2L961 727Zm-1.6 3v-11.6h1.7V730h-1.7Zm5.6 0-3.2-4.1 1.2-1.2 4 5.3h-2Zm6.6.2c-.9 0-1.6-.2-2.2-.6-.7-.3-1.1-.9-1.5-1.5-.3-.7-.5-1.5-.5-2.4 0-.9.2-1.7.5-2.4.4-.7.8-1.2 1.4-1.6.6-.4 1.4-.5 2.2-.5.5 0 1 0 1.4.2a3.5 3.5 0 0 1 2.1 2.1c.2.6.3 1.3.3 2v.6h-7V725h5.4c0-.5-.1-.9-.3-1.2a2 2 0 0 0-2-1.1c-.4 0-.8 0-1.2.3-.3.2-.6.5-.8 1-.2.3-.3.7-.3 1.1v1c0 .6.1 1.1.3 1.5.2.4.5.7.9 1 .4.2.8.3 1.3.3.3 0 .6 0 .9-.2l.7-.4.4-.7 1.6.3c-.1.5-.3 1-.7 1.3-.3.3-.7.6-1.2.8-.5.2-1 .3-1.7.3Zm7.1-5.4v5.2h-1.7v-8.7h1.7v1.4c.3-.5.6-.8 1-1.1a3 3 0 0 1 1.6-.4c.6 0 1.2 0 1.6.3.5.3.8.6 1 1.1.3.5.4 1.1.4 1.8v5.6h-1.7v-5.3c0-.7-.1-1.2-.5-1.5-.3-.4-.8-.6-1.3-.6-.4 0-.8.1-1 .3-.4.2-.6.4-.8.7l-.3 1.2Zm14.3-1.4-1.6.3-.3-.6-.5-.4a2 2 0 0 0-1-.2c-.4 0-.8.1-1.1.3-.4.2-.5.5-.5.9 0 .2.1.5.3.7l1 .4 1.4.3c.8.2 1.4.5 1.8.9.4.4.6.9.6 1.5 0 .5-.1 1-.4 1.4a3 3 0 0 1-1.3 1c-.5.2-1.1.3-1.8.3-1 0-1.8-.2-2.4-.6-.6-.5-1-1-1.2-1.8l1.7-.3c0 .4.3.8.6 1 .3.2.7.3 1.3.3.5 0 1-.1 1.3-.3.3-.3.5-.6.5-.9 0-.3-.1-.5-.3-.7a2 2 0 0 0-1-.4l-1.4-.3c-.8-.2-1.4-.5-1.8-1-.4-.3-.6-.8-.6-1.5 0-.5.1-1 .4-1.3.3-.4.7-.7 1.2-1l1.8-.2c.9 0 1.6.2 2.2.6.5.4.9 1 1 1.6Z"/><path fill="#B3B3B3" d="M785.5 534a1.5 1.5 0 0 0-3 0h3Zm27.6 79c.5-.5.5-1.5 0-2l-9.6-9.6a1.5 1.5 0 0 0-2.1 2.1l8.5 8.5-8.5 8.5a1.5 1.5 0 0 0 2.1 2.1l9.6-9.5Zm-30.6-79v54h3v-54h-3Zm25.5 79.5h4v-3h-4v3ZM782.5 588c0 14 11.4 25.5 25.5 25.5v-3c-12.4 0-22.5-10-22.5-22.5h-3Z"/><path fill="#B3B3B3" d="M785.5 534a1.5 1.5 0 0 0-3 0h3Zm27.6 191c.5-.5.5-1.5 0-2l-9.6-9.6a1.5 1.5 0 0 0-2.1 2.1l8.5 8.5-8.5 8.5a1.5 1.5 0 0 0 2.1 2.1l9.6-9.5Zm-30.6-191v166h3V534h-3ZM808 725.5h4v-3h-4v3ZM782.5 700c0 14 11.4 25.5 25.5 25.5v-3c-12.4 0-22.5-10-22.5-22.5h-3Z"/><path fill="#14AE5C" fill-rule="evenodd" d="M1205.5 182c0-2.5 2-4.5 4.5-4.5h118.5V221c0 3.6 3 6.5 6.5 6.5h43.5V346c0 2.5-2 4.5-4.5 4.5h-164c-2.5 0-4.5-2-4.5-4.5V182Zm170.9 42.5-44.9-44.9V221c0 2 1.6 3.5 3.5 3.5h41.4Z" clip-rule="evenodd"/><path fill="#fff" d="M1229 270v-11.6h7.2v1.5h-5.5v3.5h5v1.5h-5v5.1h-1.8Zm9 0v-8.7h1.7v8.7h-1.7Zm.9-10a1 1 0 0 1-.8-.4 1 1 0 0 1-.3-.7c0-.3.1-.5.3-.7.2-.2.5-.3.8-.3.3 0 .5.1.7.3.2.2.3.4.3.7 0 .3 0 .5-.3.7a1 1 0 0 1-.7.3Zm6.6 13.5c-.7 0-1.3-.1-1.8-.3-.5-.2-1-.4-1.2-.7l-.7-1 1.4-.6.4.5.7.5 1.2.2c.6 0 1.2-.2 1.6-.5.4-.3.6-.8.6-1.5v-1.7a4 4 0 0 1-.5.6c-.2.3-.5.5-.8.6a3 3 0 0 1-1.3.3c-.7 0-1.3-.2-1.9-.5-.5-.3-1-.8-1.3-1.5-.3-.6-.5-1.4-.5-2.3 0-1 .2-1.7.5-2.4.3-.6.8-1.2 1.3-1.5.6-.4 1.2-.5 1.9-.5.5 0 1 0 1.3.2l.8.7.4.6h.2v-1.4h1.6v8.9a3 3 0 0 1-.5 1.8 3 3 0 0 1-1.4 1.1c-.6.2-1.3.4-2 .4Zm0-5c.5 0 .9-.2 1.2-.4.3-.2.6-.5.8-1 .2-.4.2-1 .2-1.5 0-.6 0-1.1-.2-1.6-.2-.4-.5-.8-.8-1a2 2 0 0 0-1.2-.4 2 2 0 0 0-1.3.4c-.4.3-.6.6-.8 1-.2.5-.2 1-.2 1.6 0 .6 0 1 .2 1.5.2.4.4.8.8 1 .3.2.8.4 1.3.4Zm6 1.5v-8.7h1.7v1.4c.2-.5.5-.9 1-1.1.4-.3.9-.4 1.4-.4.6 0 1.1.1 1.5.4.4.2.7.6.9 1l1-1a3 3 0 0 1 1.7-.4c.8 0 1.4.2 2 .7.4.5.7 1.2.7 2.2v5.9h-1.7v-5.7c0-.6-.2-1-.5-1.3-.3-.2-.7-.4-1.2-.4s-1 .2-1.2.5c-.3.4-.5.8-.5 1.3v5.6h-1.7v-5.8c0-.5-.1-.9-.4-1.1-.3-.3-.7-.5-1.2-.5l-.9.3c-.3.1-.5.4-.6.7-.2.3-.3.6-.3 1v5.4h-1.7Zm16.5.2-1.5-.3c-.4-.2-.8-.5-1-1-.3-.3-.4-.8-.4-1.4 0-.5 0-.9.3-1.2.1-.3.4-.6.7-.7a4 4 0 0 1 1.1-.5l1.2-.2a413.9 413.9 0 0 0 2-.3l.2-.5c0-.5-.1-.9-.4-1.2-.3-.2-.7-.4-1.2-.4-.6 0-1 .2-1.4.4a2 2 0 0 0-.7.9l-1.6-.4a3.1 3.1 0 0 1 2.1-2 5 5 0 0 1 2.6-.1c.5 0 .8.2 1.2.4a3.2 3.2 0 0 1 1.2 2.5v5.8h-1.7v-1.2h-.1a2.4 2.4 0 0 1-1.3 1.2l-1.3.2Zm.4-1.4c.5 0 .9 0 1.2-.2l.8-.8.2-1v-1l-.3.1-.6.1a35.3 35.3 0 0 1-2 .4c-.3.1-.6.2-.7.4a1 1 0 0 0-.3.8c0 .4.2.7.5 1l1.2.2Zm10 1.2v-8.7h1.8v8.7h-1.7Zm1-10c-.4 0-.6-.2-.8-.4a1 1 0 0 1-.3-.7c0-.3 0-.5.3-.7.2-.2.4-.3.7-.3.3 0 .6.1.8.3.2.2.3.4.3.7 0 .3-.1.5-.3.7a1 1 0 0 1-.8.3Zm9.4 3.4-1.5.3-.3-.6-.6-.4a2 2 0 0 0-.9-.2l-1.2.3c-.3.2-.5.5-.5.9l.4.7 1 .4 1.4.3c.8.2 1.4.5 1.8.9.4.4.6.9.6 1.5 0 .5-.2 1-.5 1.4a3 3 0 0 1-1.2 1c-.5.2-1.2.3-1.9.3-1 0-1.8-.2-2.4-.6-.6-.5-1-1-1.1-1.8l1.6-.3c.1.4.3.8.7 1 .3.2.7.3 1.2.3.6 0 1-.1 1.3-.3.4-.3.5-.6.5-.9 0-.3 0-.5-.3-.7a2 2 0 0 0-.9-.4l-1.5-.3c-.8-.2-1.4-.5-1.8-1-.4-.3-.5-.8-.5-1.5 0-.5.1-1 .4-1.3.3-.4.7-.7 1.2-1l1.7-.2c1 0 1.7.2 2.3.6.5.4.9 1 1 1.6Zm11.5 3v-5.1h1.7v8.7h-1.7v-1.5l-1 1.2c-.5.3-1 .4-1.7.4a2.6 2.6 0 0 1-2.5-1.5 4 4 0 0 1-.3-1.8v-5.5h1.6v5.3c0 .6.2 1 .5 1.4.4.4.8.6 1.3.6a2 2 0 0 0 2-2.2Zm3.8 6.9v-12h1.6v1.4h.2c0-.2.2-.4.4-.6l.8-.7 1.3-.2a3.4 3.4 0 0 1 3.2 2c.3.7.5 1.5.5 2.5 0 .9-.2 1.7-.5 2.4-.3.6-.8 1.2-1.3 1.5-.6.4-1.2.6-1.9.6-.5 0-1-.1-1.3-.3l-.8-.6-.4-.7h-.1v4.7h-1.7Zm1.7-7.7c0 .6 0 1.2.2 1.6.2.5.5.9.8 1.1.3.3.7.4 1.2.4s1-.1 1.3-.4l.8-1c.2-.6.2-1 .2-1.7 0-.5 0-1-.2-1.5s-.4-.8-.8-1.1a2 2 0 0 0-1.3-.4 2 2 0 0 0-1.2.4c-.4.2-.6.6-.8 1-.2.5-.3 1-.3 1.6Zm11.3 4.6c-.8 0-1.4-.2-2-.6-.5-.3-1-.9-1.2-1.5-.3-.7-.5-1.5-.5-2.4 0-1 .2-1.8.5-2.5.3-.6.7-1.2 1.3-1.5.5-.4 1.2-.5 1.9-.5.5 0 1 0 1.3.2.3.2.6.4.7.7l.5.6v-4.3h1.8V270h-1.7v-1.4h-.1l-.5.7-.8.6c-.3.2-.7.3-1.3.3Zm.3-1.5a2 2 0 0 0 1.3-.4c.3-.2.6-.6.7-1 .2-.5.3-1 .3-1.7 0-.6 0-1.1-.3-1.6-.1-.4-.4-.8-.7-1a2 2 0 0 0-1.3-.4 2 2 0 0 0-1.3.4l-.7 1a4.6 4.6 0 0 0 0 3.1c.2.6.4 1 .8 1.2.3.3.7.4 1.2.4Zm8.8 1.5c-.6 0-1-.1-1.5-.3-.5-.2-.8-.5-1.1-1-.3-.3-.4-.8-.4-1.4 0-.5.1-.9.3-1.2.2-.3.4-.6.8-.7a4 4 0 0 1 1-.5l1.3-.2a413.9 413.9 0 0 0 2-.3l.2-.5c0-.5-.2-.9-.5-1.2-.2-.2-.6-.4-1.2-.4s-1 .2-1.3.4a2 2 0 0 0-.7.9l-1.6-.4a3.1 3.1 0 0 1 2-2 5 5 0 0 1 2.7-.1c.4 0 .8.2 1 .4.4.2.7.6 1 1 .2.4.3.9.3 1.5v5.8h-1.7v-1.2a2.4 2.4 0 0 1-1.4 1.2l-1.2.2Zm.3-1.4c.5 0 .9 0 1.2-.2a2 2 0 0 0 1-1.7v-1.2l-.3.2-.6.1-.6.1a79.3 79.3 0 0 0-1.4.3l-.7.4a1 1 0 0 0-.2.8c0 .4.1.7.4 1l1.2.2Zm10.1-7.5v1.3h-4.7v-1.3h4.7Zm-3.5-2.1h1.7v8.2c0 .4 0 .6.2.8 0 .1.2.3.4.3l.5.1h.6l.3 1.3-.4.1a3.3 3.3 0 0 1-2-.1c-.4-.2-.7-.4-.9-.8-.2-.3-.4-.8-.4-1.3v-8.6Zm8.9 11c-.9 0-1.6-.2-2.2-.6-.6-.3-1.1-.9-1.5-1.5-.3-.7-.5-1.5-.5-2.4 0-.9.2-1.7.5-2.4a4 4 0 0 1 1.5-1.6 4.3 4.3 0 0 1 3.5-.3 3.5 3.5 0 0 1 2.1 2.1c.2.6.3 1.3.3 2v.6h-6.9V265h5.3c0-.5-.1-.9-.3-1.2a2 2 0 0 0-.8-.8c-.3-.2-.7-.3-1.1-.3a2.2 2.2 0 0 0-2 1.2c-.3.4-.4.8-.4 1.2v1c0 .6.1 1.1.3 1.5.3.4.5.7 1 1 .3.2.7.3 1.2.3.3 0 .6 0 .9-.2.3 0 .5-.2.7-.4l.4-.7 1.6.3c0 .5-.3 1-.7 1.3-.3.3-.7.6-1.2.8-.5.2-1 .3-1.7.3Zm8.7 0a3.4 3.4 0 0 1-3.2-2.1c-.3-.7-.4-1.5-.4-2.4 0-1 .1-1.8.5-2.5.3-.6.7-1.2 1.3-1.5.5-.4 1.1-.5 1.8-.5.6 0 1 0 1.3.2.4.2.6.4.8.7l.4.6h.1v-4.3h1.8V270h-1.7v-1.4h-.2l-.4.7-.8.6c-.3.2-.8.3-1.3.3Zm.4-1.5a2 2 0 0 0 1.2-.4c.4-.2.6-.6.8-1 .2-.5.3-1 .3-1.7 0-.6-.1-1.1-.3-1.6-.2-.4-.4-.8-.8-1a2 2 0 0 0-1.2-.4 2 2 0 0 0-1.3.4l-.8 1-.2 1.6c0 .6 0 1.1.3 1.6.1.5.4.8.7 1.1.4.3.8.4 1.3.4Z"/><path fill="#B3B3B3" d="M884 484.5a1.5 1.5 0 0 0 0 3v-3Zm317-219.4c.7-.6.7-1.6 0-2.2l-9.5-9.5a1.5 1.5 0 0 0-2.1 2.1l8.5 8.5-8.5 8.5c-.6.6-.6 1.5 0 2.1.6.6 1.5.6 2.1 0l9.6-9.5ZM884 487.5h134v-3H884v3Zm159.5-25.5V288h-3v174h3Zm22.5-196.5h134v-3h-134v3Zm-22.5 22.5c0-12.4 10-22.5 22.5-22.5v-3c-14 0-25.5 11.4-25.5 25.5h3ZM1018 487.5c14 0 25.5-11.4 25.5-25.5h-3c0 12.4-10 22.5-22.5 22.5v3Z"/><path fill="#E6E6E6" d="M355.8 161.8a6 6 0 0 1 8.4 0l82 82a6 6 0 0 1 0 8.4l-82 82a6 6 0 0 1-8.4 0l-82-82a6 6 0 0 1 0-8.4l82-82Z"/><path fill="#000" fill-opacity=".8" d="M345.6 230h-1.8l4.2-11.6h2l4.2 11.6h-1.9l-3.3-9.5-3.4 9.5Zm.4-4.6h6v1.5h-6v-1.5Zm11.3-.6v5.2h-1.7v-8.7h1.6v1.4h.1c.2-.5.5-.8 1-1.1a3 3 0 0 1 1.6-.4c.6 0 1 0 1.5.3s.8.6 1 1.1c.3.5.4 1.1.4 1.8v5.6h-1.7v-5.3c0-.7-.1-1.2-.5-1.5-.3-.4-.7-.6-1.3-.6-.4 0-.8.1-1 .3-.4.2-.6.4-.8.7-.2.4-.2.8-.2 1.2Zm8.4 8.5a3.5 3.5 0 0 1-1.2-.2l.5-1.4.8.1.6-.3c.2-.1.4-.4.5-.8l.2-.6-3.2-8.8h1.9l2.2 6.7 2.3-6.7h1.8l-3.6 9.9a4 4 0 0 1-.6 1.1c-.3.3-.6.6-1 .7a3 3 0 0 1-1.2.3ZM335.2 254v-8.7h1.6v1.4c.3-.5.6-.9 1-1.1.4-.3.9-.4 1.5-.4.5 0 1 0 1.4.4.4.2.7.6 1 1 .2-.4.5-.7 1-1a3 3 0 0 1 1.6-.4c.8 0 1.5.2 2 .7.5.5.7 1.2.7 2.2v5.9h-1.7v-5.7c0-.6-.1-1-.5-1.3-.3-.2-.7-.4-1.1-.4-.6 0-1 .2-1.3.5-.3.4-.5.8-.5 1.3v5.6h-1.7v-5.8c0-.5-.1-.9-.4-1.1-.3-.3-.7-.5-1.2-.5l-.9.3-.6.7c-.2.3-.2.6-.2 1v5.4h-1.7Zm17.7.2c-.9 0-1.6-.2-2.2-.6-.7-.3-1.1-.9-1.5-1.5-.3-.7-.5-1.5-.5-2.4 0-.9.2-1.7.5-2.4.4-.7.8-1.2 1.4-1.6.6-.3 1.3-.5 2.2-.5.5 0 1 0 1.4.2a3.5 3.5 0 0 1 2.1 2.1c.2.6.3 1.3.3 2v.6h-7V249h5.4c0-.5-.1-.9-.3-1.2a2 2 0 0 0-2-1.1c-.4 0-.8 0-1.2.3-.3.2-.6.5-.8 1-.2.3-.3.7-.3 1.1v1c0 .6.1 1.1.3 1.5.2.4.5.7.9 1 .4.2.8.3 1.3.3.3 0 .6 0 .9-.2l.7-.4.4-.7 1.6.3a3 3 0 0 1-.7 1.3c-.3.3-.7.6-1.2.8-.5.2-1 .3-1.7.3Zm5.4-.2v-8.7h1.7v1.4c.2-.5.5-.9.9-1.1.4-.3.9-.5 1.4-.5a7.9 7.9 0 0 1 .7 0v1.7h-.9c-.4 0-.7 0-1 .2a1.9 1.9 0 0 0-1 1.7v5.3h-1.8Zm9.3 3.5c-.7 0-1.2-.1-1.7-.3-.5-.2-1-.4-1.3-.7a3 3 0 0 1-.7-1l1.5-.6.4.5.7.5 1.2.2c.6 0 1.1-.2 1.6-.5.4-.3.6-.8.6-1.5v-1.7h-.1l-.5.6c-.2.3-.4.5-.7.6a3 3 0 0 1-1.3.3c-.7 0-1.4-.2-2-.5-.5-.3-.9-.8-1.2-1.5-.3-.6-.5-1.4-.5-2.3 0-1 .2-1.7.5-2.4.3-.6.7-1.2 1.3-1.5.5-.4 1.2-.5 1.9-.5.5 0 1 0 1.3.2l.8.7.4.6h.1v-1.4h1.7v8.9a3 3 0 0 1-.5 1.8 3 3 0 0 1-1.5 1.1c-.5.2-1.2.4-2 .4Zm0-5c.5 0 1-.2 1.3-.4.3-.2.6-.5.7-1a4.3 4.3 0 0 0 0-3.1c-.1-.4-.4-.8-.7-1a2 2 0 0 0-1.3-.4 2 2 0 0 0-1.3.4c-.3.3-.6.6-.7 1-.2.5-.3 1-.3 1.6 0 .6.1 1 .3 1.5.2.4.4.8.8 1 .3.2.7.4 1.2.4Zm9.8 1.7c-.8 0-1.6-.2-2.2-.6-.6-.3-1-.9-1.4-1.5-.3-.7-.5-1.5-.5-2.4 0-.9.2-1.7.5-2.4s.8-1.2 1.4-1.6c.6-.3 1.3-.5 2.1-.5a3.5 3.5 0 0 1 3.5 2.4c.3.5.4 1.2.4 2v.5h-7V249h5.3c0-.5 0-.9-.2-1.2a2 2 0 0 0-2-1.1c-.4 0-.9 0-1.2.3-.4.2-.6.5-.8 1-.2.3-.3.7-.3 1.1v1c0 .6 0 1.1.3 1.5.2.4.5.7.9 1 .3.2.8.3 1.3.3.3 0 .6 0 .8-.2.3 0 .5-.2.7-.4l.5-.7 1.6.3c-.1.5-.4 1-.7 1.3l-1.3.8c-.5.2-1 .3-1.7.3ZM326.8 278v-8.7h1.7v8.7h-1.7Zm.9-10a1 1 0 0 1-.8-.4 1 1 0 0 1-.3-.7c0-.3 0-.5.3-.7.2-.2.5-.3.8-.3.3 0 .5.1.7.3.2.2.3.4.3.7 0 .3 0 .5-.3.7a1 1 0 0 1-.7.3Zm4.6 4.8v5.2h-1.7v-8.7h1.6v1.4h.2c.2-.5.5-.8.9-1.1a3 3 0 0 1 1.6-.4c.6 0 1.1 0 1.6.3.4.3.8.6 1 1.1.3.5.4 1.1.4 1.8v5.6h-1.7v-5.3c0-.7-.2-1.2-.5-1.5-.3-.4-.8-.6-1.4-.6-.3 0-.7.1-1 .3l-.7.7-.3 1.2Zm11.8-3.5v1.3h-4.8v-1.3h4.8Zm-3.5-2.1h1.7v8.2l.1.8.4.3.5.1a2 2 0 0 0 .6 0l.3 1.3-.4.1a3.3 3.3 0 0 1-2-.1l-.9-.8c-.2-.3-.3-.8-.3-1.3v-8.6Zm8.8 11a3.8 3.8 0 0 1-3.6-2.1c-.3-.7-.5-1.5-.5-2.4 0-1 .2-1.7.5-2.4a3.8 3.8 0 0 1 3.6-2.1 3.8 3.8 0 0 1 3.6 2.1c.3.7.4 1.5.4 2.4 0 .9-.1 1.7-.5 2.3a3.8 3.8 0 0 1-3.5 2.2Zm0-1.4c.5 0 1-.2 1.3-.5l.8-1 .2-1.6c0-.6 0-1.1-.2-1.6-.2-.4-.5-.8-.8-1a2 2 0 0 0-1.3-.5 2 2 0 0 0-1.4.4c-.3.3-.6.7-.7 1.1a4.5 4.5 0 0 0 0 3c.1.6.4 1 .7 1.2.4.3.8.4 1.4.4Zm9.8 1.2v-8.7h1.6v1.4h.1c.2-.5.5-.9 1-1.1.4-.3.8-.4 1.4-.4.6 0 1 .1 1.5.4.4.2.7.6.9 1l1-1a3 3 0 0 1 1.7-.4c.8 0 1.4.2 2 .7.4.5.7 1.2.7 2.2v5.9h-1.7v-5.7c0-.6-.2-1-.5-1.3-.3-.2-.7-.4-1.2-.4s-1 .2-1.3.5c-.3.4-.4.8-.4 1.3v5.6h-1.7v-5.8c0-.5-.2-.9-.4-1.1-.3-.3-.7-.5-1.2-.5l-.9.3c-.3.1-.5.4-.6.7-.2.3-.3.6-.3 1v5.4h-1.7Zm16.5.2-1.5-.3c-.4-.2-.8-.5-1-1-.3-.3-.4-.8-.4-1.4 0-.5 0-.9.2-1.2.2-.3.5-.6.8-.7a4 4 0 0 1 1-.5l1.3-.2 1.3-.1.7-.2.2-.5c0-.5-.1-.9-.4-1.2-.3-.2-.7-.4-1.2-.4-.6 0-1 .2-1.4.4a2 2 0 0 0-.7.9l-1.6-.4a3 3 0 0 1 2.1-2 5 5 0 0 1 2.6-.1c.4 0 .8.2 1.1.4.4.2.7.6.9 1 .2.4.3.9.3 1.5v5.8h-1.6v-1.2h-.1l-.5.7-.8.5-1.3.2Zm.4-1.4c.5 0 .9 0 1.2-.2a2 2 0 0 0 1-1.7v-1.2l-.3.2-.6.1-.7.1h-.5l-.9.3c-.3.1-.5.2-.6.4a1 1 0 0 0-.3.8c0 .4.2.7.5 1l1.2.2Zm6 1.2v-8.7h1.7v8.7h-1.7Zm.9-10a1 1 0 0 1-.8-.4 1 1 0 0 1-.3-.7c0-.3 0-.5.3-.7.2-.2.5-.3.8-.3.3 0 .5.1.7.3.2.2.3.4.3.7 0 .3 0 .5-.3.7a1 1 0 0 1-.7.3Zm4.6 4.8v5.2H386v-8.7h1.6v1.4h.2c.2-.5.5-.8.9-1.1a3 3 0 0 1 1.6-.4c.6 0 1.1 0 1.6.3.4.3.8.6 1 1.1.3.5.4 1.1.4 1.8v5.6h-1.7v-5.3c0-.7-.2-1.2-.5-1.5-.3-.4-.8-.6-1.4-.6-.3 0-.7.1-1 .3l-.7.7-.3 1.2Z"/><path fill="#B3B3B3" d="M180 246.5a1.5 1.5 0 0 0 0 3v-3Zm89 2.6c.6-.6.6-1.6 0-2.2l-9.5-9.5a1.5 1.5 0 0 0-2.1 2.1l8.5 8.5-8.5 8.5a1.5 1.5 0 0 0 2.1 2.1l9.6-9.5Zm-89 .4h88v-3h-88v3ZM452 246.5a1.5 1.5 0 0 0 0 3v-3Zm91.5 2.6c.6-.6.6-1.6 0-2.2l-9.5-9.5a1.5 1.5 0 0 0-2.2 2.1l8.5 8.5-8.5 8.5a1.5 1.5 0 0 0 2.2 2.1l9.5-9.5Zm-91.5.4h90.5v-3H452v3Z"/><rect width="248" height="88" x="784" fill="#AFF4C6" rx="6"/><path fill="#000" fill-opacity=".8" d="M827 30.1h-1.8a2.7 2.7 0 0 0-2-2.1 3.5 3.5 0 0 0-2.9.3c-.5.3-.9.8-1.2 1.5-.3.6-.5 1.4-.5 2.4s.2 1.7.5 2.4a3.3 3.3 0 0 0 3 2c.4 0 .8 0 1-.2.4 0 .7-.2 1-.4a2.7 2.7 0 0 0 1-1.8h1.8a4.7 4.7 0 0 1-1.6 2.9l-1.4.8c-.5.2-1.1.3-1.8.3-1 0-1.9-.3-2.7-.8a5 5 0 0 1-1.8-2 7 7 0 0 1-.7-3.2 7 7 0 0 1 .7-3.2 5 5 0 0 1 4.5-2.8c.6 0 1.2 0 1.8.3a4.6 4.6 0 0 1 2.5 2l.5 1.6Zm1.7 7.9v-8.7h1.7v1.4c.2-.5.5-.9.9-1.1.4-.3.9-.5 1.4-.5a7.2 7.2 0 0 1 .7 0v1.7h-.4l-.5-.1c-.4 0-.8 0-1 .3a1.9 1.9 0 0 0-1 1.7V38h-1.8Zm9.4.2c-.8 0-1.6-.2-2.2-.6-.6-.3-1-.9-1.4-1.5-.3-.7-.5-1.5-.5-2.4 0-.9.2-1.7.5-2.4s.8-1.2 1.4-1.6c.6-.3 1.3-.5 2.1-.5.5 0 1 0 1.5.2a3.5 3.5 0 0 1 2 2.1c.3.6.4 1.3.4 2v.6h-7V33h5.3c0-.5 0-.9-.3-1.2a2 2 0 0 0-1.9-1.1c-.4 0-.9 0-1.2.3-.4.2-.6.5-.8 1-.2.3-.3.7-.3 1.1v1c0 .6 0 1.1.3 1.5.2.4.5.7.9 1 .3.2.8.3 1.3.3.3 0 .6 0 .8-.2.3 0 .5-.2.7-.4l.5-.7 1.6.3a3 3 0 0 1-.7 1.3l-1.3.8c-.5.2-1 .3-1.7.3Zm8 0-1.5-.3c-.4-.2-.8-.5-1-1-.3-.3-.4-.8-.4-1.4 0-.5 0-.9.3-1.2.2-.3.4-.6.7-.7a4 4 0 0 1 1.1-.5l1.2-.2 1.3-.1.7-.2c.2-.1.2-.3.2-.5 0-.5-.1-.9-.4-1.2-.3-.2-.7-.4-1.2-.4-.6 0-1 .2-1.4.4a2 2 0 0 0-.7.9l-1.6-.4a3 3 0 0 1 2.1-2 5 5 0 0 1 2.7-.1c.4 0 .7.2 1 .4.4.2.7.6 1 1l.2 1.5V38h-1.6v-1.2l-.6.7-.8.5-1.3.2Zm.4-1.4c.5 0 .9 0 1.2-.2a2 2 0 0 0 1-1.7v-1.2l-.3.2-.6.1a61.9 61.9 0 0 1-2 .4c-.3.1-.6.2-.7.4a1 1 0 0 0-.3.8c0 .4.2.7.5 1l1.2.2Zm10.1-7.5v1.3h-4.8v-1.3h4.8Zm-3.5-2.1h1.7v8.2c0 .4 0 .6.2.8l.3.3.6.1h.6l.3 1.3-.5.1a3.3 3.3 0 0 1-1.9-.1c-.4-.2-.7-.4-1-.8-.2-.3-.3-.8-.3-1.3v-8.6Zm8.9 11c-.9 0-1.6-.2-2.3-.6-.6-.3-1-.9-1.4-1.5-.3-.7-.5-1.5-.5-2.4 0-.9.2-1.7.5-2.4.4-.7.8-1.2 1.4-1.6.6-.3 1.3-.5 2.1-.5.5 0 1 0 1.5.2a3.5 3.5 0 0 1 2.1 2.1c.2.6.3 1.3.3 2v.6h-7V33h5.3c0-.5 0-.9-.2-1.2a2 2 0 0 0-2-1.1c-.4 0-.8 0-1.2.3-.3.2-.6.5-.8 1-.2.3-.3.7-.3 1.1v1c0 .6.1 1.1.3 1.5.2.4.5.7.9 1 .4.2.8.3 1.3.3.3 0 .6 0 .9-.2l.7-.4.4-.7 1.6.3a3 3 0 0 1-.7 1.3c-.3.3-.7.6-1.2.8-.5.2-1 .3-1.7.3Zm12 0-1.5-.3c-.4-.2-.8-.5-1-1-.3-.3-.4-.8-.4-1.4 0-.5 0-.9.3-1.2.1-.3.4-.6.7-.7a4 4 0 0 1 1.1-.5l1.2-.2a3464.1 3464.1 0 0 0 2-.3l.2-.5c0-.5-.1-.9-.4-1.2-.3-.2-.7-.4-1.2-.4-.6 0-1 .2-1.4.4a2 2 0 0 0-.7.9l-1.6-.4a3 3 0 0 1 2.1-2 5 5 0 0 1 2.6-.1c.4 0 .8.2 1.2.4a3.2 3.2 0 0 1 1.2 2.5V38h-1.7v-1.2h-.1l-.5.7-.8.5-1.3.2Zm.4-1.4c.5 0 .9 0 1.2-.2a2 2 0 0 0 1-1.7v-1.2l-.3.2-.6.1a71.2 71.2 0 0 1-2 .4c-.3.1-.6.2-.7.4a1 1 0 0 0-.3.8c0 .4.2.7.5 1l1.2.2Zm10.2 1.2V26.4h4.2c.9 0 1.6.1 2.2.5.6.3 1 .7 1.3 1.3.3.6.5 1.2.5 2a4 4 0 0 1-.5 1.9c-.3.5-.7 1-1.3 1.3-.6.3-1.3.5-2.2.5h-2.9v-1.5h2.7c.6 0 1 0 1.4-.3.3-.2.6-.4.8-.8l.2-1.2c0-.4 0-.8-.2-1.1-.2-.4-.5-.6-.8-.8a3 3 0 0 0-1.4-.3h-2.2V38h-1.8Zm10 0V26.4h4.2c1 0 1.7.1 2.3.4.6.3 1 .8 1.3 1.3.3.6.4 1.2.4 2 0 .6-.1 1.3-.4 1.8a3 3 0 0 1-1.3 1.2 5 5 0 0 1-2.3.5h-3.1v-1.5h3c.5 0 1-.1 1.3-.3.4-.1.7-.4.8-.7.2-.3.3-.7.3-1 0-.5-.1-1-.3-1.2-.1-.4-.4-.6-.8-.8l-1.4-.2h-2.2V38h-1.7Zm5.8-5.3 2.9 5.3h-2l-2.8-5.3h2Zm10.2 5.3-2.6-8.7h1.8l1.7 6.4h.1l1.7-6.4h1.8l1.7 6.4 1.8-6.4h1.7l-2.5 8.7H916l-1.8-6.3-1.9 6.3h-1.7Zm11.2 0v-8.7h1.7V38h-1.7Zm.8-10a1 1 0 0 1-.8-.4 1 1 0 0 1-.3-.7c0-.3.1-.5.4-.7.2-.2.4-.3.7-.3.3 0 .6.1.8.3.2.2.3.4.3.7 0 .3-.1.5-.3.7a1 1 0 0 1-.8.3Zm7 1.3v1.3H925v-1.3h4.7Zm-3.5-2.1h1.7v8.2l.2.8c0 .1.2.3.4.3l.5.1h.6l.3 1.3-.4.1a3.3 3.3 0 0 1-2-.1c-.3-.2-.7-.4-.9-.8-.2-.3-.4-.8-.4-1.3v-8.6Zm7.1 5.6V38h-1.7V26.4h1.7v4.3h.1c.2-.5.5-.8 1-1.1a3 3 0 0 1 1.6-.4c.6 0 1.1 0 1.6.3.4.3.8.6 1 1.1.3.5.4 1.1.4 1.8V38h-1.7v-5.3c0-.7-.2-1.2-.5-1.5-.3-.4-.8-.6-1.4-.6-.4 0-.7.1-1 .3-.4.2-.6.4-.8.7l-.3 1.2ZM949 38h-3.7V26.4h3.9c1.1 0 2 .2 2.9.7.8.4 1.4 1 1.9 2 .4.8.6 1.9.6 3 0 1.3-.2 2.3-.6 3.2-.5.9-1.1 1.5-2 2-.8.5-1.8.7-3 .7Zm-2-1.5h2c.8 0 1.6-.2 2.1-.5.6-.4 1-.9 1.4-1.5.3-.6.4-1.4.4-2.3 0-1-.1-1.7-.4-2.4a3 3 0 0 0-1.3-1.4c-.6-.3-1.3-.5-2.2-.5h-2v8.6Zm13.3 1.7c-.9 0-1.6-.2-2.3-.6-.6-.3-1-.9-1.4-1.5-.3-.7-.5-1.5-.5-2.4 0-.9.2-1.7.5-2.4s.8-1.2 1.4-1.6c.6-.3 1.3-.5 2.1-.5.5 0 1 0 1.5.2a3.5 3.5 0 0 1 2 2.1c.3.6.4 1.3.4 2v.6h-7V33h5.3c0-.5 0-.9-.2-1.2a2 2 0 0 0-2-1.1c-.4 0-.8 0-1.2.3-.3.2-.6.5-.8 1-.2.3-.3.7-.3 1.1v1c0 .6.1 1.1.3 1.5.2.4.5.7.9 1 .4.2.8.3 1.3.3.3 0 .6 0 .9-.2l.7-.4.4-.7 1.6.3a3 3 0 0 1-.7 1.3c-.3.3-.7.6-1.2.8-.5.2-1.1.3-1.7.3Zm12-6.8-1.6.3-.3-.6-.5-.4a2 2 0 0 0-1-.2c-.4 0-.8.1-1.1.3-.4.2-.5.5-.5.9 0 .2 0 .5.3.7l1 .4 1.4.3c.8.2 1.4.5 1.8.9.4.4.6.9.6 1.5 0 .5-.1 1-.4 1.4a3 3 0 0 1-1.3 1c-.5.2-1.1.3-1.8.3-1 0-1.8-.2-2.4-.6-.6-.5-1-1-1.2-1.8l1.7-.3c0 .4.3.8.6 1 .3.2.7.3 1.3.3.5 0 1-.1 1.3-.3.3-.3.5-.6.5-.9 0-.3-.1-.5-.3-.7a2 2 0 0 0-1-.4l-1.4-.3c-.8-.2-1.4-.5-1.8-1-.4-.3-.6-.8-.6-1.5 0-.5.1-1 .4-1.3.3-.4.7-.7 1.2-1l1.8-.2c.9 0 1.6.2 2.2.6.5.4.9 1 1 1.6ZM974 38v-8.7h1.7V38H974Zm.9-10a1 1 0 0 1-.8-.4 1 1 0 0 1-.3-.7c0-.3.1-.5.3-.7.2-.2.5-.3.8-.3.3 0 .5.1.7.3.2.2.4.4.4.7 0 .3-.2.5-.4.7a1 1 0 0 1-.7.3Zm6.6 13.5c-.7 0-1.3-.1-1.8-.3-.5-.2-.9-.4-1.2-.7a3 3 0 0 1-.7-1l1.4-.6.4.5.8.5 1.1.2c.6 0 1.2-.2 1.6-.5.4-.3.6-.8.6-1.5v-1.7l-.5.6c-.2.3-.5.5-.8.6a3 3 0 0 1-1.3.3c-.7 0-1.3-.2-1.9-.5-.5-.3-1-.8-1.3-1.5-.3-.6-.5-1.4-.5-2.3 0-1 .2-1.7.5-2.4a3.4 3.4 0 0 1 3.2-2c.5 0 1 0 1.3.2.4.2.6.4.8.7l.4.6h.2v-1.4h1.6v8.9a3 3 0 0 1-.5 1.8 3 3 0 0 1-1.4 1.1c-.6.2-1.3.4-2 .4Zm0-5c.5 0 .9-.2 1.2-.4.4-.2.6-.5.8-1a4.3 4.3 0 0 0 0-3.1c-.2-.4-.4-.8-.8-1a2 2 0 0 0-1.2-.4 2 2 0 0 0-1.3.4l-.8 1-.2 1.6c0 .6 0 1 .2 1.5.2.4.5.8.8 1 .3.2.8.4 1.3.4Zm7.7-3.7V38h-1.7v-8.7h1.7v1.4c.3-.5.6-.8 1-1.1a3 3 0 0 1 1.6-.4c.6 0 1.2 0 1.6.3.5.3.8.6 1 1.1.3.5.4 1.1.4 1.8V38h-1.7v-5.3c0-.7-.2-1.2-.5-1.5-.3-.4-.8-.6-1.3-.6-.4 0-.8.1-1 .3-.4.2-.6.4-.8.7l-.3 1.2ZM852 51.8v-1.4h9v1.5h-3.6V62h-1.8V51.9H852Zm13 10.4a3.8 3.8 0 0 1-3.6-2.1c-.2-.7-.4-1.5-.4-2.4 0-1 .2-1.7.5-2.4a3.8 3.8 0 0 1 3.6-2.1 3.8 3.8 0 0 1 3.6 2.1c.3.7.4 1.5.4 2.4 0 .9-.1 1.7-.5 2.3a3.8 3.8 0 0 1-3.5 2.2Zm0-1.5c.6 0 1 0 1.4-.4.4-.3.6-.6.8-1l.2-1.6c0-.6 0-1.1-.2-1.6-.2-.4-.4-.8-.8-1a2 2 0 0 0-1.3-.5 2 2 0 0 0-1.3.4c-.4.3-.7.7-.8 1.1a4.5 4.5 0 0 0 0 3c.1.6.4 1 .8 1.2.3.3.8.5 1.3.5Zm7.4-1.7v-2h.3l3.5-3.7h2l-4 4.2h-.2l-1.6 1.5Zm-1.5 3V50.4h1.7V62h-1.7Zm5.5 0-3.1-4.1 1.1-1.2 4 5.3h-2Zm6.6.2c-.9 0-1.6-.2-2.2-.6-.6-.3-1.1-.9-1.5-1.5-.3-.7-.5-1.5-.5-2.4 0-.9.2-1.7.5-2.4.4-.7.9-1.2 1.5-1.6a4.3 4.3 0 0 1 3.6-.3 3.5 3.5 0 0 1 2 2.1c.2.6.3 1.3.3 2v.6h-6.9V57h5.3c0-.5-.1-.9-.3-1.2a2 2 0 0 0-2-1.1c-.4 0-.8 0-1.2.3-.3.2-.6.5-.8 1-.2.3-.3.7-.3 1.1v1c0 .6.1 1.1.3 1.5.3.4.5.7 1 1 .3.2.7.3 1.2.3.3 0 .6 0 .9-.2.3 0 .5-.2.7-.4l.4-.7 1.6.3a3 3 0 0 1-.7 1.3c-.3.3-.7.6-1.2.8-.5.2-1 .3-1.7.3Zm7.2-5.4V62h-1.7v-8.7h1.6v1.4c.3-.5.6-.8 1-1.1a3 3 0 0 1 1.7-.4c.6 0 1 0 1.5.3s.8.6 1 1.1c.3.5.4 1.1.4 1.8V62H894v-5.3c0-.7-.1-1.2-.5-1.5-.3-.4-.7-.6-1.3-.6-.4 0-.8.1-1 .3-.4.2-.6.4-.8.7-.2.4-.2.8-.2 1.2Zm15.4 5.4a4 4 0 0 1-2.2-.6c-.6-.4-1-1-1.4-1.6-.3-.7-.5-1.4-.5-2.3 0-1 .2-1.7.5-2.4s.8-1.2 1.4-1.6a4 4 0 0 1 2.2-.5 4 4 0 0 1 1.7.3c.5.3 1 .6 1.3 1 .3.5.5 1 .6 1.6h-1.7a2 2 0 0 0-.6-1c-.3-.4-.8-.5-1.3-.5s-.9.1-1.3.4c-.3.2-.6.6-.8 1a4 4 0 0 0-.3 1.6c0 .7.1 1.2.3 1.7.2.4.5.8.8 1 .4.3.8.4 1.3.4l.9-.1.6-.6.4-.8h1.7c-.1.6-.3 1.1-.6 1.5-.3.5-.7.8-1.2 1.1a4 4 0 0 1-1.8.4Zm6.9-5.4V62h-1.7V50.4h1.7v4.3c.3-.5.6-.8 1-1.1a3 3 0 0 1 1.7-.4 2.5 2.5 0 0 1 2.6 1.5c.2.4.4 1 .4 1.7V62h-1.7v-5.3a2 2 0 0 0-.5-1.5c-.4-.4-.8-.6-1.4-.6-.4 0-.8.1-1 .3-.4.2-.7.4-.8.7l-.3 1.2Zm10.3 5.4c-.6 0-1-.1-1.5-.3-.5-.2-.8-.5-1-1-.3-.3-.5-.8-.5-1.4 0-.5.1-.9.3-1.2.2-.3.5-.6.8-.7a4 4 0 0 1 1-.5l1.3-.2a3464.1 3464.1 0 0 0 2-.3l.2-.5c0-.5-.1-.9-.4-1.2-.3-.2-.7-.4-1.3-.4-.5 0-1 .2-1.3.4a2 2 0 0 0-.7.9l-1.6-.4a3 3 0 0 1 2.1-2 5 5 0 0 1 2.6-.1c.4 0 .8.2 1.1.4.4.2.6.6.9 1 .2.4.3.9.3 1.5V62h-1.7v-1.2l-.5.7-.9.5-1.2.2Zm.4-1.4c.4 0 .8 0 1.2-.2a2 2 0 0 0 1-1.7v-1.2l-.4.2a5.5 5.5 0 0 1-1.2.2 61.8 61.8 0 0 0-1.4.3l-.7.4a1 1 0 0 0-.2.8c0 .4.2.7.5 1l1.2.2Zm7.7-4V62H929v-8.7h1.6v1.4h.1c.2-.5.5-.8 1-1.1a3 3 0 0 1 1.6-.4c.6 0 1.1 0 1.6.3.4.3.8.6 1 1.1.2.5.4 1.1.4 1.8V62h-1.7v-5.3c0-.7-.2-1.2-.5-1.5-.4-.4-.8-.6-1.4-.6-.4 0-.7.1-1 .3l-.8.7-.2 1.2Zm11.3 8.7c-.7 0-1.3-.1-1.8-.3-.5-.2-.9-.4-1.2-.7a3 3 0 0 1-.7-1l1.5-.6.4.5.7.5 1.1.2c.7 0 1.2-.2 1.6-.5.5-.3.7-.8.7-1.5v-1.7h-.1a4 4 0 0 1-.5.6c-.2.3-.4.5-.8.6a3 3 0 0 1-1.3.3 3.4 3.4 0 0 1-3.2-2c-.3-.6-.4-1.4-.4-2.3 0-1 .1-1.7.5-2.4.3-.6.7-1.2 1.3-1.5.5-.4 1.1-.5 1.8-.5.6 0 1 0 1.4.2.3.2.6.4.7.7l.5.6h.1v-1.4h1.7v8.9a3 3 0 0 1-.6 1.8 3 3 0 0 1-1.4 1.1c-.6.2-1.2.4-2 .4Zm0-5c.5 0 1-.2 1.3-.4.3-.2.5-.5.7-1a4.2 4.2 0 0 0 0-3.1c-.1-.4-.4-.8-.7-1a2 2 0 0 0-1.3-.4 2 2 0 0 0-1.3.4c-.3.3-.6.6-.7 1-.2.5-.3 1-.3 1.6 0 .6 0 1 .3 1.5.1.4.4.8.7 1 .4.2.8.4 1.3.4Zm9.8 1.7c-.8 0-1.6-.2-2.2-.6-.6-.3-1-.9-1.4-1.5-.4-.7-.5-1.5-.5-2.4 0-.9.1-1.7.5-2.4.3-.7.8-1.2 1.4-1.6.6-.3 1.3-.5 2.1-.5.5 0 1 0 1.4.2a3.5 3.5 0 0 1 2.2 2.1c.2.6.3 1.3.3 2v.6h-7V57h5.3c0-.5 0-.9-.3-1.2a2 2 0 0 0-1.9-1.1c-.5 0-.9 0-1.2.3-.4.2-.7.5-.8 1-.2.3-.3.7-.3 1.1v1c0 .6 0 1.1.3 1.5l.8 1c.4.2.9.3 1.3.3s.7 0 1-.2c.2 0 .4-.2.6-.4l.5-.7 1.6.3a3 3 0 0 1-.7 1.3l-1.3.8c-.5.2-1 .3-1.7.3Zm12-6.8-1.5.3-.3-.6-.6-.4a2 2 0 0 0-.9-.2l-1.2.3c-.3.2-.4.5-.4.9 0 .2 0 .5.3.7l1 .4 1.4.3c.8.2 1.4.5 1.8.9.4.4.6.9.6 1.5 0 .5-.2 1-.5 1.4a3 3 0 0 1-1.2 1c-.6.2-1.2.3-1.9.3-1 0-1.8-.2-2.4-.6-.6-.5-1-1-1.1-1.8l1.6-.3c.1.4.4.8.7 1 .3.2.7.3 1.2.3.6 0 1-.1 1.3-.3.4-.3.5-.6.5-.9 0-.3 0-.5-.3-.7a2 2 0 0 0-.9-.4l-1.5-.3c-.8-.2-1.4-.5-1.8-1-.4-.3-.5-.8-.5-1.5 0-.5.1-1 .4-1.3.3-.4.7-.7 1.2-1l1.7-.2c1 0 1.7.2 2.2.6.6.4 1 1 1.1 1.6Z"/><path fill="#B3B3B3" d="M1290.5 172a1.5 1.5 0 1 0 3 0h-3ZM1034.9 43c-.6.5-.6 1.5 0 2l9.6 9.6a1.5 1.5 0 1 0 2.1-2.1l-8.5-8.5 8.5-8.5c.6-.6.6-1.5 0-2.1-.6-.6-1.5-.6-2.1 0l-9.6 9.5Zm258.6 129V68h-3v104h3ZM1268 42.5h-232v3h232v-3Zm25.5 25.5c0-14-11.4-25.5-25.5-25.5v3c12.4 0 22.5 10 22.5 22.5h3ZM780 45.5a1.5 1.5 0 0 0 0-3v3Zm-133-3a1.5 1.5 0 0 0 0 3v-3Zm-154 3a1.5 1.5 0 0 0 0-3v3ZM359 157.1c.5.5 1.5.5 2 0l9.6-9.6a1.5 1.5 0 0 0-2.1-2.1l-8.5 8.5-8.5-8.5a1.5 1.5 0 0 0-2.1 2.1l9.5 9.6ZM780 42.5H647v3h133v-3Zm-287 0H384v3h109v-3ZM358.5 68v88h3V68h-3ZM384 42.5c-14 0-25.5 11.4-25.5 25.5h3c0-12.4 10-22.5 22.5-22.5v-3Z"/><path fill="#000" fill-opacity=".8" d="M503.4 50h-1.9l4.2-11.6h2L512 50H510l-3.3-9.5-3.3 9.5Zm.3-4.6h6V47h-6v-1.5Zm13.1 4.8a4 4 0 0 1-2.2-.6c-.6-.4-1-1-1.4-1.6-.3-.7-.5-1.4-.5-2.3 0-1 .2-1.7.5-2.4.4-.7.8-1.2 1.4-1.6a4 4 0 0 1 2.2-.5 4 4 0 0 1 1.8.3c.5.3.9.6 1.2 1 .3.5.5 1 .6 1.6h-1.7a2 2 0 0 0-.6-1c-.3-.4-.7-.5-1.3-.5-.5 0-.9.1-1.2.4-.4.2-.7.6-.9 1a4 4 0 0 0-.2 1.6c0 .7 0 1.2.2 1.7.2.4.5.8.9 1 .3.3.7.4 1.2.4l.9-.1.7-.6c.1-.2.3-.4.3-.8h1.7a3.2 3.2 0 0 1-1.8 2.6 4 4 0 0 1-1.8.4Zm9 0a4 4 0 0 1-2.3-.6c-.6-.4-1-1-1.4-1.6-.3-.7-.5-1.4-.5-2.3 0-1 .2-1.7.5-2.4.4-.7.8-1.2 1.4-1.6a4 4 0 0 1 2.2-.5 4 4 0 0 1 1.8.3c.5.3.9.6 1.2 1 .3.5.5 1 .6 1.6h-1.7a2 2 0 0 0-.6-1c-.3-.4-.7-.5-1.3-.5-.5 0-.9.1-1.2.4-.4.2-.7.6-.8 1a4 4 0 0 0-.3 1.6c0 .7 0 1.2.2 1.7.2.4.5.8.9 1 .3.3.7.4 1.2.4l.9-.1.7-.6c.1-.2.3-.4.3-.8h1.7a3.2 3.2 0 0 1-1.8 2.6 4 4 0 0 1-1.8.4Zm8.9 0c-.9 0-1.6-.2-2.2-.6-.6-.3-1.1-.9-1.5-1.5-.3-.7-.5-1.5-.5-2.4 0-.9.2-1.7.5-2.4.4-.7.8-1.2 1.5-1.6a4.3 4.3 0 0 1 3.6-.3 3.5 3.5 0 0 1 2 2.1c.2.6.3 1.3.3 2v.6h-6.9V45h5.3c0-.5-.1-.9-.3-1.2a2 2 0 0 0-2-1.1c-.4 0-.8 0-1.2.3-.3.2-.6.5-.8 1-.2.3-.3.7-.3 1.1v1c0 .6.1 1.1.3 1.5.3.4.5.7 1 1 .3.2.7.3 1.2.3.3 0 .6 0 .9-.2.3 0 .5-.2.7-.4l.4-.7 1.6.3a3 3 0 0 1-.7 1.3c-.3.3-.7.6-1.2.8-.5.2-1 .3-1.7.3Zm5.4 3v-12h1.7v1.5h.2c0-.2.2-.4.4-.6l.7-.7 1.4-.2a3.4 3.4 0 0 1 3.1 2c.4.7.5 1.5.5 2.5 0 .9-.1 1.7-.5 2.4-.3.6-.7 1.2-1.2 1.5-.6.4-1.2.6-2 .6-.5 0-.9-.1-1.2-.3l-.8-.6-.4-.7h-.2v4.7h-1.7Zm1.7-7.6c0 .6.1 1.2.3 1.6.2.5.4.9.8 1.1.3.3.7.4 1.2.4s1-.1 1.3-.4c.3-.3.6-.6.7-1 .2-.6.3-1 .3-1.7 0-.5 0-1-.3-1.5-.1-.5-.4-.8-.7-1.1a2 2 0 0 0-1.3-.4 2 2 0 0 0-1.3.4c-.3.2-.6.6-.7 1-.2.5-.3 1-.3 1.6Zm12.1-4.3v1.3h-4.7v-1.3h4.7Zm-3.5-2.1h1.7v8.2c0 .4 0 .6.2.8 0 .1.2.3.4.3l.5.1h.6l.3 1.3-.4.1a3.3 3.3 0 0 1-2-.1c-.4-.2-.7-.4-1-.8-.1-.3-.3-.8-.3-1.3v-8.6Zm11.8 11-1.5-.3c-.4-.2-.8-.5-1-1-.3-.3-.4-.8-.4-1.4 0-.5 0-.9.3-1.2.1-.3.4-.6.7-.7a4 4 0 0 1 1.1-.5l1.2-.2 1.3-.1.7-.2c.2-.1.2-.3.2-.5 0-.5-.1-.9-.4-1.2-.3-.2-.7-.4-1.2-.4-.6 0-1 .2-1.4.4a2 2 0 0 0-.7.9l-1.6-.4a3 3 0 0 1 2.1-2 5 5 0 0 1 2.7-.1c.3 0 .7.2 1 .4.4.2.7.6.9 1 .2.4.3.9.3 1.5V50H565v-1.2h-.1l-.5.7-.8.5-1.3.2Zm.4-1.4c.5 0 .9 0 1.2-.2a2 2 0 0 0 1-1.7v-1.2l-.3.2-.6.1a61.9 61.9 0 0 1-2 .4c-.3.1-.6.2-.7.4a1 1 0 0 0-.3.8c0 .4.2.7.5 1l1.2.2Zm7.7-4V50h-1.7v-8.7h1.6v1.4h.2c.2-.5.5-.8.9-1.1a3 3 0 0 1 1.6-.4c.6 0 1.1 0 1.6.3.4.3.8.6 1 1.1.3.5.4 1.1.4 1.8V50h-1.7v-5.3c0-.7-.2-1.2-.5-1.5-.3-.4-.8-.6-1.4-.6-.3 0-.7.1-1 .3l-.7.7-.3 1.2Zm11 5.4A3.4 3.4 0 0 1 578 48c-.3-.7-.5-1.5-.5-2.4 0-1 .2-1.8.5-2.5.3-.6.7-1.2 1.3-1.5.6-.4 1.2-.5 1.9-.5.5 0 1 0 1.3.2l.8.7.4.6h.1v-4.3h1.7V50h-1.7v-1.4h-.1l-.4.7a2.5 2.5 0 0 1-2.1.9Zm.3-1.5a2 2 0 0 0 1.3-.4c.3-.2.6-.6.8-1l.2-1.7c0-.6 0-1.1-.2-1.6-.2-.4-.5-.8-.8-1a2 2 0 0 0-1.3-.4 2 2 0 0 0-1.2.4c-.4.3-.6.6-.8 1a4.5 4.5 0 0 0 0 3.1c.2.6.4 1 .8 1.2.3.3.7.4 1.2.4ZM592 38.4h2.2l3.7 9h.1l3.7-9h2.1V50h-1.6v-8.4h-.1l-3.5 8.4h-1.4l-3.4-8.4V50H592V38.4Zm17.8 11.8c-.8 0-1.6-.2-2.2-.6-.6-.3-1-.9-1.4-1.5-.3-.7-.5-1.5-.5-2.4 0-.9.2-1.7.5-2.4s.8-1.2 1.4-1.6c.6-.3 1.3-.5 2.1-.5a3.5 3.5 0 0 1 3.5 2.4c.3.5.4 1.2.4 2v.5h-7V45h5.3c0-.5 0-.9-.2-1.2a2 2 0 0 0-2-1.1c-.4 0-.9 0-1.2.3-.4.2-.6.5-.8 1-.2.3-.3.7-.3 1.1v1c0 .6 0 1.1.3 1.5.2.4.5.7.9 1 .3.2.8.3 1.3.3.3 0 .6 0 .8-.2.3 0 .5-.2.7-.4l.5-.7 1.6.3a3 3 0 0 1-.7 1.3l-1.3.8c-.5.2-1 .3-1.7.3Zm5.5-.2v-8.7h1.6v1.4h.1c.2-.5.5-.9.9-1.1.4-.3.8-.5 1.3-.5a7.2 7.2 0 0 1 .8 0v1.7h-.4l-.5-.1c-.4 0-.8 0-1 .3a1.9 1.9 0 0 0-1.1 1.7V50h-1.7Zm9.3 3.5c-.7 0-1.3-.1-1.8-.3-.5-.2-.9-.4-1.2-.7a3 3 0 0 1-.7-1l1.5-.6.4.5c.1.2.4.4.7.5l1.1.2c.7 0 1.2-.2 1.6-.5.4-.3.7-.8.7-1.5v-1.7h-.2c0 .2-.2.4-.4.6-.2.3-.4.5-.8.6a3 3 0 0 1-1.3.3 3.4 3.4 0 0 1-3.2-2c-.3-.6-.4-1.4-.4-2.3 0-1 .1-1.7.4-2.4.4-.6.8-1.2 1.3-1.5.6-.4 1.2-.5 2-.5.5 0 1 0 1.2.2.4.2.6.4.8.7l.5.6v-1.4h1.7v8.9a3 3 0 0 1-.5 1.8 3 3 0 0 1-1.4 1.1c-.6.2-1.2.4-2 .4Zm0-5c.5 0 .9-.2 1.2-.4.4-.2.6-.5.8-1a4.2 4.2 0 0 0 0-3.1c-.2-.4-.4-.8-.8-1a2 2 0 0 0-1.2-.4 2 2 0 0 0-1.3.4l-.8 1-.2 1.6c0 .6 0 1 .2 1.5.2.4.5.8.8 1 .4.2.8.4 1.3.4Zm9.8 1.7c-.8 0-1.6-.2-2.2-.6-.6-.3-1.1-.9-1.4-1.5-.4-.7-.5-1.5-.5-2.4 0-.9.1-1.7.5-2.4.3-.7.8-1.2 1.4-1.6a4.3 4.3 0 0 1 3.6-.3 3.5 3.5 0 0 1 2 2.1c.3.6.4 1.3.4 2v.6h-7V45h5.3c0-.5-.1-.9-.3-1.2a2 2 0 0 0-1.9-1.1c-.5 0-.9 0-1.2.3-.4.2-.7.5-.9 1-.2.3-.2.7-.2 1.1v1c0 .6 0 1.1.3 1.5l.8 1c.4.2.8.3 1.3.3.4 0 .6 0 1-.2.2 0 .4-.2.6-.4l.4-.7 1.6.3a3 3 0 0 1-.6 1.3l-1.3.8c-.5.2-1 .3-1.7.3Z"/></svg>